<?xml version="1.0" encoding="UTF-8" standalone="no"?>
<!-- Created with Inkscape (http://www.inkscape.org/) -->

<svg
   xmlns:dc="http://purl.org/dc/elements/1.1/"
   xmlns:cc="http://creativecommons.org/ns#"
   xmlns:rdf="http://www.w3.org/1999/02/22-rdf-syntax-ns#"
   xmlns:svg="http://www.w3.org/2000/svg"
   xmlns="http://www.w3.org/2000/svg"
   xmlns:xlink="http://www.w3.org/1999/xlink"
   xmlns:sodipodi="http://sodipodi.sourceforge.net/DTD/sodipodi-0.dtd"
   xmlns:inkscape="http://www.inkscape.org/namespaces/inkscape"
   width="701.44318"
   height="183.77786"
   id="svg6574"
   version="1.1"
   inkscape:version="0.48.0 r9654"
   sodipodi:docname="New document 5">
  <defs
     id="defs6576">
    <linearGradient
       inkscape:collect="always"
       xlink:href="#linearGradient5759"
       id="linearGradient6059"
       gradientUnits="userSpaceOnUse"
       gradientTransform="matrix(1.7201724,0,0,1.7201724,23.917803,-54.456933)"
       x1="72.214287"
       y1="19.232769"
       x2="74.258926"
       y2="19.232769" />
    <linearGradient
       id="linearGradient5759">
      <stop
         style="stop-color:#282828;stop-opacity:1;"
         offset="0"
         id="stop5761" />
      <stop
         id="stop5763"
         offset="0.14515586"
         style="stop-color:#5b5b5b;stop-opacity:1;" />
      <stop
         id="stop5765"
         offset="0.39800802"
         style="stop-color:#717171;stop-opacity:1;" />
      <stop
         style="stop-color:#9e9e9e;stop-opacity:1;"
         offset="0.50800115"
         id="stop5767" />
      <stop
         style="stop-color:#c8c8c8;stop-opacity:1;"
         offset="1"
         id="stop5769" />
    </linearGradient>
    <linearGradient
       inkscape:collect="always"
       xlink:href="#linearGradient4139"
       id="linearGradient6056"
       gradientUnits="userSpaceOnUse"
       gradientTransform="matrix(0.30040793,0,0,0.30040793,74.627091,-61.800129)"
       x1="35.600517"
       y1="110.64205"
       x2="180.16722"
       y2="110.64205" />
    <linearGradient
       id="linearGradient4139">
      <stop
         id="stop4141"
         offset="0"
         style="stop-color:#d2b46e;stop-opacity:1;" />
      <stop
         style="stop-color:#e0c780;stop-opacity:1;"
         offset="0.5"
         id="stop4151" />
      <stop
         id="stop4153"
         offset="0.75"
         style="stop-color:#dddc7f;stop-opacity:1;" />
      <stop
         id="stop4143"
         offset="1"
         style="stop-color:#dfde96;stop-opacity:1;" />
    </linearGradient>
    <linearGradient
       inkscape:collect="always"
       xlink:href="#linearGradient4123"
       id="linearGradient6044"
       gradientUnits="userSpaceOnUse"
       gradientTransform="matrix(0.30040793,0,0,0.30040793,74.627091,-61.800129)"
       x1="211.02844"
       y1="135.53101"
       x2="238.39108"
       y2="135.53101" />
    <linearGradient
       id="linearGradient4123">
      <stop
         id="stop4125"
         offset="0"
         style="stop-color:#7d7d7d;stop-opacity:1;" />
      <stop
         style="stop-color:#7d7d7d;stop-opacity:1;"
         offset="0.5239349"
         id="stop4131" />
      <stop
         id="stop4127"
         offset="1"
         style="stop-color:#626262;stop-opacity:1;" />
    </linearGradient>
    <radialGradient
       inkscape:collect="always"
       xlink:href="#linearGradient4113"
       id="radialGradient6041"
       gradientUnits="userSpaceOnUse"
       gradientTransform="matrix(0.30040793,0,0,0.70903028,74.627091,-117.22761)"
       cx="237.03053"
       cy="135.64476"
       fx="237.03053"
       fy="135.64476"
       r="8.352109" />
    <linearGradient
       id="linearGradient4113">
      <stop
         id="stop4115"
         offset="0"
         style="stop-color:#fbfbfb;stop-opacity:1;" />
      <stop
         style="stop-color:#b2b2b2;stop-opacity:1;"
         offset="0.74117649"
         id="stop4121" />
      <stop
         id="stop4117"
         offset="1"
         style="stop-color:#5b5b5b;stop-opacity:1;" />
    </linearGradient>
    <linearGradient
       inkscape:collect="always"
       xlink:href="#linearGradient4139"
       id="linearGradient6037"
       gradientUnits="userSpaceOnUse"
       gradientTransform="matrix(0.30040793,0,0,0.30040793,74.627091,-61.800129)"
       x1="4.570148"
       y1="120.37076"
       x2="174.39255"
       y2="120.37076" />
    <linearGradient
       id="linearGradient6392">
      <stop
         id="stop6394"
         offset="0"
         style="stop-color:#d2b46e;stop-opacity:1;" />
      <stop
         style="stop-color:#e0c780;stop-opacity:1;"
         offset="0.5"
         id="stop6396" />
      <stop
         id="stop6398"
         offset="0.75"
         style="stop-color:#dddc7f;stop-opacity:1;" />
      <stop
         id="stop6400"
         offset="1"
         style="stop-color:#dfde96;stop-opacity:1;" />
    </linearGradient>
    <radialGradient
       inkscape:collect="always"
       xlink:href="#linearGradient6075"
       id="radialGradient6067"
       cx="149.99503"
       cy="19.454454"
       fx="149.99503"
       fy="19.454454"
       r="3.1560922"
       gradientUnits="userSpaceOnUse" />
    <linearGradient
       id="linearGradient6075">
      <stop
         style="stop-color:#fc4b4b;stop-opacity:0.88235295;"
         offset="0"
         id="stop6081" />
      <stop
         id="stop6089"
         offset="0.5"
         style="stop-color:#fc4b4b;stop-opacity:0.90344828;" />
      <stop
         style="stop-color:#fc4b4b;stop-opacity:0.31724137;"
         offset="0.86470586"
         id="stop6091" />
      <stop
         id="stop6085"
         offset="1"
         style="stop-color:#fc4b4b;stop-opacity:0;" />
    </linearGradient>
    <linearGradient
       inkscape:collect="always"
       xlink:href="#linearGradient5970"
       id="linearGradient6034"
       gradientUnits="userSpaceOnUse"
       gradientTransform="translate(76,-40.997506)"
       x1="67.973869"
       y1="15.080983"
       x2="74.348213"
       y2="15.080983" />
    <linearGradient
       id="linearGradient5970">
      <stop
         id="stop5972"
         offset="0"
         style="stop-color:#282828;stop-opacity:1;" />
      <stop
         style="stop-color:#5b5b5b;stop-opacity:1;"
         offset="0.14515586"
         id="stop5982" />
      <stop
         style="stop-color:#717171;stop-opacity:1;"
         offset="0.39800802"
         id="stop5978" />
      <stop
         id="stop5980"
         offset="0.73544961"
         style="stop-color:#9e9e9e;stop-opacity:1;" />
      <stop
         id="stop5974"
         offset="1"
         style="stop-color:#c8c8c8;stop-opacity:1;" />
    </linearGradient>
    <linearGradient
       inkscape:collect="always"
       xlink:href="#linearGradient5970"
       id="linearGradient6031"
       gradientUnits="userSpaceOnUse"
       gradientTransform="matrix(1,0,0,-1,75.96652,-1.0252706)"
       x1="67.973869"
       y1="15.080983"
       x2="74.348213"
       y2="15.080983" />
    <linearGradient
       id="linearGradient6416">
      <stop
         id="stop6418"
         offset="0"
         style="stop-color:#282828;stop-opacity:1;" />
      <stop
         style="stop-color:#5b5b5b;stop-opacity:1;"
         offset="0.14515586"
         id="stop6420" />
      <stop
         style="stop-color:#717171;stop-opacity:1;"
         offset="0.39800802"
         id="stop6422" />
      <stop
         id="stop6424"
         offset="0.73544961"
         style="stop-color:#9e9e9e;stop-opacity:1;" />
      <stop
         id="stop6426"
         offset="1"
         style="stop-color:#c8c8c8;stop-opacity:1;" />
    </linearGradient>
    <linearGradient
       inkscape:collect="always"
       xlink:href="#linearGradient5970"
       id="linearGradient6028"
       gradientUnits="userSpaceOnUse"
       x1="64.758926"
       y1="20.058662"
       x2="72.964287"
       y2="20.058662"
       gradientTransform="translate(76,-40.997506)" />
    <linearGradient
       id="linearGradient6429">
      <stop
         id="stop6431"
         offset="0"
         style="stop-color:#282828;stop-opacity:1;" />
      <stop
         style="stop-color:#5b5b5b;stop-opacity:1;"
         offset="0.14515586"
         id="stop6433" />
      <stop
         style="stop-color:#717171;stop-opacity:1;"
         offset="0.39800802"
         id="stop6435" />
      <stop
         id="stop6437"
         offset="0.73544961"
         style="stop-color:#9e9e9e;stop-opacity:1;" />
      <stop
         id="stop6439"
         offset="1"
         style="stop-color:#c8c8c8;stop-opacity:1;" />
    </linearGradient>
    <linearGradient
       inkscape:collect="always"
       xlink:href="#linearGradient5759"
       id="linearGradient5757"
       x1="72.214287"
       y1="19.232769"
       x2="74.258926"
       y2="19.232769"
       gradientUnits="userSpaceOnUse"
       gradientTransform="matrix(1.7201724,0,0,1.7201724,-52.082197,-54.456933)" />
    <linearGradient
       id="linearGradient6442">
      <stop
         style="stop-color:#282828;stop-opacity:1;"
         offset="0"
         id="stop6444" />
      <stop
         id="stop6446"
         offset="0.14515586"
         style="stop-color:#5b5b5b;stop-opacity:1;" />
      <stop
         id="stop6448"
         offset="0.39800802"
         style="stop-color:#717171;stop-opacity:1;" />
      <stop
         style="stop-color:#9e9e9e;stop-opacity:1;"
         offset="0.50800115"
         id="stop6450" />
      <stop
         style="stop-color:#c8c8c8;stop-opacity:1;"
         offset="1"
         id="stop6452" />
    </linearGradient>
    <linearGradient
       inkscape:collect="always"
       xlink:href="#linearGradient4139"
       id="linearGradient5874"
       gradientUnits="userSpaceOnUse"
       x1="35.600517"
       y1="110.64205"
       x2="180.16722"
       y2="110.64205"
       gradientTransform="matrix(0.30040793,0,0,0.30040793,-1.3729088,-61.800129)" />
    <linearGradient
       id="linearGradient6455">
      <stop
         id="stop6457"
         offset="0"
         style="stop-color:#d2b46e;stop-opacity:1;" />
      <stop
         style="stop-color:#e0c780;stop-opacity:1;"
         offset="0.5"
         id="stop6459" />
      <stop
         id="stop6461"
         offset="0.75"
         style="stop-color:#dddc7f;stop-opacity:1;" />
      <stop
         id="stop6463"
         offset="1"
         style="stop-color:#dfde96;stop-opacity:1;" />
    </linearGradient>
    <linearGradient
       inkscape:collect="always"
       xlink:href="#linearGradient4123"
       id="linearGradient5846"
       gradientUnits="userSpaceOnUse"
       x1="211.02844"
       y1="135.53101"
       x2="238.39108"
       y2="135.53101"
       gradientTransform="matrix(0.30040793,0,0,0.30040793,-1.3729088,-61.800129)" />
    <linearGradient
       id="linearGradient6466">
      <stop
         id="stop6468"
         offset="0"
         style="stop-color:#7d7d7d;stop-opacity:1;" />
      <stop
         style="stop-color:#7d7d7d;stop-opacity:1;"
         offset="0.5239349"
         id="stop6470" />
      <stop
         id="stop6472"
         offset="1"
         style="stop-color:#626262;stop-opacity:1;" />
    </linearGradient>
    <radialGradient
       inkscape:collect="always"
       xlink:href="#linearGradient4113"
       id="radialGradient5843"
       gradientUnits="userSpaceOnUse"
       gradientTransform="matrix(0.30040793,0,0,0.70903028,-1.3729088,-117.22761)"
       cx="237.03053"
       cy="135.64476"
       fx="237.03053"
       fy="135.64476"
       r="8.352109" />
    <linearGradient
       id="linearGradient6475">
      <stop
         id="stop6477"
         offset="0"
         style="stop-color:#fbfbfb;stop-opacity:1;" />
      <stop
         style="stop-color:#b2b2b2;stop-opacity:1;"
         offset="0.74117649"
         id="stop6479" />
      <stop
         id="stop6481"
         offset="1"
         style="stop-color:#5b5b5b;stop-opacity:1;" />
    </linearGradient>
    <linearGradient
       inkscape:collect="always"
       xlink:href="#linearGradient4139"
       id="linearGradient5824"
       gradientUnits="userSpaceOnUse"
       x1="4.570148"
       y1="120.37076"
       x2="174.39255"
       y2="120.37076"
       gradientTransform="matrix(0.30040793,0,0,0.30040793,-1.3729088,-61.800129)" />
    <linearGradient
       id="linearGradient6484">
      <stop
         id="stop6486"
         offset="0"
         style="stop-color:#d2b46e;stop-opacity:1;" />
      <stop
         style="stop-color:#e0c780;stop-opacity:1;"
         offset="0.5"
         id="stop6488" />
      <stop
         id="stop6490"
         offset="0.75"
         style="stop-color:#dddc7f;stop-opacity:1;" />
      <stop
         id="stop6492"
         offset="1"
         style="stop-color:#dfde96;stop-opacity:1;" />
    </linearGradient>
    <linearGradient
       inkscape:collect="always"
       xlink:href="#linearGradient5970"
       id="linearGradient5729"
       x1="67.973869"
       y1="15.080983"
       x2="74.348213"
       y2="15.080983"
       gradientUnits="userSpaceOnUse"
       gradientTransform="translate(-2.0002653e-7,-40.997506)" />
    <linearGradient
       id="linearGradient6495">
      <stop
         id="stop6497"
         offset="0"
         style="stop-color:#282828;stop-opacity:1;" />
      <stop
         style="stop-color:#5b5b5b;stop-opacity:1;"
         offset="0.14515586"
         id="stop6499" />
      <stop
         style="stop-color:#717171;stop-opacity:1;"
         offset="0.39800802"
         id="stop6501" />
      <stop
         id="stop6503"
         offset="0.73544961"
         style="stop-color:#9e9e9e;stop-opacity:1;" />
      <stop
         id="stop6505"
         offset="1"
         style="stop-color:#c8c8c8;stop-opacity:1;" />
    </linearGradient>
    <linearGradient
       inkscape:collect="always"
       xlink:href="#linearGradient5970"
       id="linearGradient5733"
       gradientUnits="userSpaceOnUse"
       x1="67.973869"
       y1="15.080983"
       x2="74.348213"
       y2="15.080983"
       gradientTransform="matrix(1,0,0,-1,-0.03348014,-1.0252706)" />
    <linearGradient
       id="linearGradient6508">
      <stop
         id="stop6510"
         offset="0"
         style="stop-color:#282828;stop-opacity:1;" />
      <stop
         style="stop-color:#5b5b5b;stop-opacity:1;"
         offset="0.14515586"
         id="stop6512" />
      <stop
         style="stop-color:#717171;stop-opacity:1;"
         offset="0.39800802"
         id="stop6514" />
      <stop
         id="stop6516"
         offset="0.73544961"
         style="stop-color:#9e9e9e;stop-opacity:1;" />
      <stop
         id="stop6518"
         offset="1"
         style="stop-color:#c8c8c8;stop-opacity:1;" />
    </linearGradient>
    <linearGradient
       inkscape:collect="always"
       xlink:href="#linearGradient5970"
       id="linearGradient5747"
       x1="64.758926"
       y1="20.058662"
       x2="72.964287"
       y2="20.058662"
       gradientUnits="userSpaceOnUse" />
    <linearGradient
       id="linearGradient6521">
      <stop
         id="stop6523"
         offset="0"
         style="stop-color:#282828;stop-opacity:1;" />
      <stop
         style="stop-color:#5b5b5b;stop-opacity:1;"
         offset="0.14515586"
         id="stop6525" />
      <stop
         style="stop-color:#717171;stop-opacity:1;"
         offset="0.39800802"
         id="stop6527" />
      <stop
         id="stop6529"
         offset="0.73544961"
         style="stop-color:#9e9e9e;stop-opacity:1;" />
      <stop
         id="stop6531"
         offset="1"
         style="stop-color:#c8c8c8;stop-opacity:1;" />
    </linearGradient>
    <linearGradient
       y2="20.058662"
       x2="72.964287"
       y1="20.058662"
       x1="64.758926"
       gradientUnits="userSpaceOnUse"
       id="linearGradient6572"
       xlink:href="#linearGradient5970"
       inkscape:collect="always" />
  </defs>
  <sodipodi:namedview
     id="base"
     pagecolor="#ffffff"
     bordercolor="#666666"
     borderopacity="1.0"
     inkscape:pageopacity="0.0"
     inkscape:pageshadow="2"
     inkscape:zoom="0.35"
     inkscape:cx="350.72159"
     inkscape:cy="91.710812"
     inkscape:document-units="px"
     inkscape:current-layer="layer1"
     showgrid="false"
     fit-margin-top="0"
     fit-margin-left="0"
     fit-margin-right="0"
     fit-margin-bottom="0"
     inkscape:window-width="496"
     inkscape:window-height="457"
     inkscape:window-x="470"
     inkscape:window-y="196"
     inkscape:window-maximized="0" />
  <metadata
     id="metadata6579">
    <rdf:RDF>
      <cc:Work
         rdf:about="">
        <dc:format>image/svg+xml</dc:format>
        <dc:type
           rdf:resource="http://purl.org/dc/dcmitype/StillImage" />
        <dc:title></dc:title>
      </cc:Work>
    </rdf:RDF>
  </metadata>
  <g
     inkscape:label="Layer 1"
     inkscape:groupmode="layer"
     id="layer1"
     transform="translate(-24.278406,-440.29513)">
    <g
       transform="matrix(4.5884417,0,0,4.5884417,24.278406,628.70802)"
       id="g5876">
      <path
         sodipodi:nodetypes="ccccc"
         inkscape:connector-curvature="0"
         id="path5749"
         d="m 72.151306,-21.797947 1.364136,0.205273 0.117694,0.108216 -0.128106,0.105651 -1.272272,0.218897"
         style="fill:url(#linearGradient5757);fill-opacity:1;stroke:#000000;stroke-width:0.17201725;stroke-linecap:butt;stroke-linejoin:miter;stroke-miterlimit:4;stroke-opacity:1;stroke-dasharray:none" />
      <path
         sodipodi:nodetypes="cccccccccccc"
         inkscape:connector-curvature="0"
         id="path4123"
         d="m 31.170586,-40.870262 -10.169995,18.38274 -4.707246,-7.815334 -6.8443321,13.57194 0,0.339374 0.2977061,0.137046 6.403969,-8.984125 4.730734,5.877865 11.363729,-14.371322 20.186472,12.971538 0.191886,-6.639282 z"
         style="fill:url(#linearGradient5874);fill-opacity:1;stroke:#000000;stroke-width:0.25448889px;stroke-linecap:butt;stroke-linejoin:miter;stroke-opacity:1;display:inline" />
      <path
         style="fill:none;stroke:#000000;stroke-width:0.30040792px;stroke-linecap:butt;stroke-linejoin:miter;stroke-opacity:1"
         d="m 64.49457,-15.452668 c 0,0 0.418306,8.018789 -5.064139,13.0736391"
         id="path3089"
         inkscape:connector-curvature="0"
         sodipodi:nodetypes="cs" />
      <path
         id="path3996"
         style="fill:#a3a3a3;fill-opacity:1;stroke:#000000;stroke-width:0.30040792px;stroke-linecap:butt;stroke-linejoin:miter;stroke-opacity:1"
         d="m 57.061417,-1.605127 c -3.986575,-1.2684545 -6.29646,-11.9801 -6.371306,-18.357968 l -9.070112,0.262812 c 0.06005,6.438283 2.276056,14.1124017 7.382913,18.0335123 2.628638,0.74631844 6.106956,0.616401 8.058505,0.061644 z"
         inkscape:connector-curvature="0"
         sodipodi:nodetypes="ccccc" />
      <path
         id="path3984"
         style="fill:#a3a3a3;fill-opacity:1;stroke:#000000;stroke-width:0.30040792px;stroke-linecap:butt;stroke-linejoin:miter;stroke-opacity:1"
         d="m 48.652921,-37.849188 c -4.818594,4.659432 -7.09316,11.727926 -7.032922,18.186456 l 9.126438,-0.39424 c -0.07371,-6.281263 1.341484,-15.302226 5.86125,-17.785428 -2.729888,-0.872262 -5.940032,-0.369914 -7.954766,-0.0068 z"
         inkscape:connector-curvature="0"
         sodipodi:nodetypes="ccccc" />
      <path
         id="path4004"
         style="fill:#b1b1b1;fill-opacity:1;stroke:#000000;stroke-width:0.30040792px;stroke-linecap:butt;stroke-linejoin:miter;stroke-opacity:1"
         d="m 56.412704,-37.765411 c 2.508274,0.60665 8.050651,6.367255 8.347391,10.822458 -0.906596,0.780448 -1.507835,1.760042 -1.98959,2.885674 -0.357236,1.176698 -0.515326,2.393221 -0.607037,3.689406 0,0 -3.988514,0.07543 -11.469194,0.347491 0.207618,-5.671985 0.81583,-14.905329 5.71843,-17.745029 z"
         inkscape:connector-curvature="0"
         sodipodi:nodetypes="cccccc" />
      <path
         id="path4141"
         style="fill:#8e8e8e;fill-opacity:1;stroke:#000000;stroke-width:0.30040792px;stroke-linecap:butt;stroke-linejoin:miter;stroke-opacity:1"
         d="m 41.621336,-19.662827 c -2.129355,0.103211 -4.988586,0.292089 -7.48534,0.443081 0.35094,3.900607 1.021718,6.073199 2.529615,8.815335 2.443422,4.0457048 4.868697,5.5286295 7.997626,7.350895 1.293532,0.753345 2.716489,1.1225403 4.274684,1.3761777 -1.034692,-1.17978 -1.855352,-1.7327439 -2.890041,-3.1190574 -1.08298,-1.5252221 -1.99698,-3.3133042 -2.573021,-5.0262843 -0.689508,-1.666576 -1.17987,-3.226943 -1.351602,-4.760757 -0.286793,-1.653301 -0.507205,-3.426089 -0.501921,-5.07939 z"
         inkscape:connector-curvature="0"
         sodipodi:nodetypes="cccaccccc" />
      <path
         sodipodi:nodetypes="ccccccccc"
         inkscape:connector-curvature="0"
         d="m 41.592734,-19.624478 c -2.130941,0.06238 -4.969654,0.281864 -7.470595,0.32512 0.08838,-2.902346 0.613829,-5.895482 1.837754,-9.117847 2.305877,-4.406996 6.567921,-6.96184 7.894129,-7.624271 1.43172,-0.658829 3.468984,-1.540008 4.798103,-1.807497 -1.19225,0.991006 -2.120952,2.412016 -3.018366,3.834629 -1.080811,1.564851 -1.742111,3.001257 -2.329496,4.713949 -0.558074,1.715068 -1.23458,2.977274 -1.578821,4.625997 0.05482,1.697127 -0.08043,3.428571 -0.132708,5.04992 z"
         style="fill:#8e8e8e;fill-opacity:1;stroke:#000000;stroke-width:0.30040792px;stroke-linecap:butt;stroke-linejoin:miter;stroke-opacity:1"
         id="path4652" />
      <path
         sodipodi:nodetypes="ccccccc"
         inkscape:connector-curvature="0"
         d="m 59.568712,-2.3491413 c 2.878569,-3.4409986 5.511197,-8.5941177 4.911517,-13.1902967 -0.975692,-0.692128 -1.201344,-1.411977 -1.786385,-2.487552 -0.465849,-1.138077 -0.259207,-1.099757 -0.471887,-2.381661 0,0 -4.09754,-0.03353 -11.570827,0.396067 -0.164975,6.264884 2.504564,17.0662978 6.430105,18.4254635 0.789328,-0.1831978 1.711424,-0.4062297 2.487477,-0.7620208 z"
         style="fill:#b1b1b1;fill-opacity:1;stroke:#000000;stroke-width:0.30040792px;stroke-linecap:butt;stroke-linejoin:miter;stroke-opacity:1"
         id="path4655-0" />
      <path
         style="fill:#a3a3a3;fill-opacity:1;stroke:#000000;stroke-width:0.30040792px;stroke-linecap:butt;stroke-linejoin:miter;stroke-opacity:1"
         d="m 62.26892,-20.427999 8.874996,-0.477946 c -0.333525,-8.31491 -7.167442,-15.442174 -14.685453,-16.959034 5.540633,3.646552 7.677985,7.577129 8.412605,10.958154 -2.115352,1.708216 -2.531342,4.000587 -2.602148,6.478826 z"
         id="path4701"
         inkscape:connector-curvature="0"
         sodipodi:nodetypes="ccccc" />
      <path
         sodipodi:nodetypes="ccccc"
         inkscape:connector-curvature="0"
         id="path4703"
         d="m 62.267574,-20.404872 8.880308,-0.452462 c 0.489046,7.827306 -4.799804,15.7781725 -11.698189,18.563621 4.215415,-4.4649841 4.664068,-9.767085 5.031061,-13.207483 -1.79084,-1.935618 -2.295639,-3.414791 -2.21318,-4.903676 z"
         style="fill:#9d9d9d;fill-opacity:1;stroke:#000000;stroke-width:0.30040792px;stroke-linecap:butt;stroke-linejoin:miter;stroke-opacity:1" />
      <path
         inkscape:connector-curvature="0"
         style="fill:url(#linearGradient5846);fill-opacity:1;stroke:#000000;stroke-width:0.33211404px;stroke-linecap:butt;stroke-linejoin:miter;stroke-opacity:1;display:inline"
         d="m 69.635178,-26.808733 -4.899669,-0.06871 c -1.858023,1.224379 -2.574358,3.945507 -2.546987,6.170502 0.02328,1.892681 0.730724,4.128332 2.295047,5.194014 l 5.592037,0.219301"
         id="path3145" />
      <path
         style="fill:url(#radialGradient5843);fill-opacity:1;stroke:#000000;stroke-width:0.33211404px;stroke-linecap:butt;stroke-linejoin:miter;stroke-opacity:1;display:inline"
         d="m 67.566755,-20.59618 c 0.553691,5.300331 2.503422,5.300656 2.503422,5.300656 1.702118,-1.097117 2.157148,-3.622331 2.101285,-5.622652 -0.05968,-2.13696 -0.758861,-4.702736 -2.536284,-5.889031 0,0 -2.62212,0.910692 -2.068423,6.211027 z"
         id="path3309"
         inkscape:connector-curvature="0"
         sodipodi:nodetypes="scscs" />
      <path
         sodipodi:open="true"
         sodipodi:type="arc"
         style="fill:#000000;fill-opacity:1;stroke:#000000;stroke-width:0.53053719;stroke-linecap:round;stroke-linejoin:round;stroke-miterlimit:4;stroke-opacity:1;stroke-dasharray:none;stroke-dashoffset:0;display:inline"
         id="path3915"
         sodipodi:cx="237.36172"
         sodipodi:cy="136.00626"
         sodipodi:rx="2.4309936"
         sodipodi:ry="7.8633027"
         d="m 239.77256,134.99582 c 0.17253,4.30677 -0.76698,8.2505 -2.09845,8.80855 -1.33147,0.55805 -2.5507,-2.4809 -2.72322,-6.78767 -0.17253,-4.30678 0.76698,-8.2505 2.09845,-8.80856 1.30746,-0.54798 2.51167,2.37492 2.71445,6.58866"
         transform="matrix(0.31922104,0.64917772,-0.04276954,0.33195124,0.64174757,-220.34512)"
         sodipodi:start="6.1543283"
         sodipodi:end="12.411947" />
      <path
         style="fill:url(#linearGradient5824);fill-opacity:1;stroke:#000000;stroke-width:0.30040792px;stroke-linecap:butt;stroke-linejoin:miter;stroke-opacity:1;display:inline"
         d="m 25.767882,-40.170408 -12.117683,21.68088 -5.4206945,-9.202858 -8.07930069,16.020812 0,0.400612 0.3514238,0.161775 7.57864119,-10.394378 5.5442462,7.279911 13.411822,-17.520583 23.738248,15.19882 0.09121,-7.765419 z"
         id="path3106"
         inkscape:connector-curvature="0"
         sodipodi:nodetypes="cccccccccccc" />
      <path
         sodipodi:nodetypes="cccccccc"
         inkscape:connector-curvature="0"
         id="path4953"
         d="m 68.103336,-26.777813 3.860949,-1.236924 2.321429,3.392857 -0.178572,0.803572 -0.129252,-0.764671 -1.972954,-2.430679 -2.651186,0.260661 z"
         style="fill:url(#linearGradient5729);fill-opacity:1;stroke:#000000;stroke-width:0.1;stroke-linecap:butt;stroke-linejoin:miter;stroke-miterlimit:4;stroke-opacity:1;stroke-dasharray:none" />
      <path
         style="fill:url(#linearGradient5733);fill-opacity:1;stroke:#000000;stroke-width:0.1;stroke-linecap:butt;stroke-linejoin:miter;stroke-miterlimit:4;stroke-opacity:1;stroke-dasharray:none"
         d="m 68.069855,-15.244963 3.860949,1.236924 2.321429,-3.392857 -0.178572,-0.803572 -0.129252,0.764671 -1.972954,2.430679 -2.651186,-0.260661 z"
         id="path5731"
         inkscape:connector-curvature="0"
         sodipodi:nodetypes="cccccccc" />
      <path
         transform="translate(-2.0002653e-7,-40.997506)"
         inkscape:connector-curvature="0"
         id="path5739"
         d="m 64.821428,19.411341 0,1.294642 5.848215,-0.223214 2.232142,-0.982143 -2.5,0.04464 z"
         style="fill:url(#linearGradient6572);fill-opacity:1;stroke:#000000;stroke-width:0.1;stroke-linecap:butt;stroke-linejoin:miter;stroke-miterlimit:4;stroke-opacity:1;stroke-dasharray:none" />
    </g>
    <g
       transform="matrix(4.5884417,0,0,4.5884417,24.278406,628.70802)"
       id="g6093">
      <path
         style="fill:url(#linearGradient6059);fill-opacity:1;stroke:#000000;stroke-width:0.17201725;stroke-linecap:butt;stroke-linejoin:miter;stroke-miterlimit:4;stroke-opacity:1;stroke-dasharray:none"
         d="m 148.15131,-21.797947 1.36413,0.205273 0.1177,0.108216 -0.12811,0.105651 -1.27227,0.218897"
         id="path5898"
         inkscape:connector-curvature="0"
         sodipodi:nodetypes="ccccc" />
      <path
         style="fill:url(#linearGradient6056);fill-opacity:1;stroke:#000000;stroke-width:0.25448889px;stroke-linecap:butt;stroke-linejoin:miter;stroke-opacity:1;display:inline"
         d="m 107.17059,-40.870262 -10.169999,18.38274 -4.707246,-7.815334 -6.844332,13.57194 0,0.339374 0.297706,0.137046 6.403969,-8.984125 4.730734,5.877865 11.363728,-14.371322 20.18647,12.971538 0.19189,-6.639282 z"
         id="path5900"
         inkscape:connector-curvature="0"
         sodipodi:nodetypes="cccccccccccc" />
      <path
         sodipodi:nodetypes="cs"
         inkscape:connector-curvature="0"
         id="path5902"
         d="m 140.49457,-15.452668 c 0,0 0.41831,8.018789 -5.06414,13.0736391"
         style="fill:none;stroke:#000000;stroke-width:0.30040792px;stroke-linecap:butt;stroke-linejoin:miter;stroke-opacity:1" />
      <path
         sodipodi:nodetypes="ccccc"
         inkscape:connector-curvature="0"
         d="m 133.06142,-1.605127 c -3.98658,-1.2684545 -6.29646,-11.9801 -6.37131,-18.357968 l -9.07011,0.262812 c 0.06,6.438283 2.27605,14.1124017 7.38291,18.0335123 2.62864,0.74631844 6.10696,0.616401 8.05851,0.061644 z"
         style="fill:#a3a3a3;fill-opacity:1;stroke:#000000;stroke-width:0.30040792px;stroke-linecap:butt;stroke-linejoin:miter;stroke-opacity:1"
         id="path5904" />
      <path
         sodipodi:nodetypes="ccccc"
         inkscape:connector-curvature="0"
         d="m 124.65292,-37.849188 c -4.81859,4.659432 -7.09316,11.727926 -7.03292,18.186456 l 9.12644,-0.39424 c -0.0737,-6.281263 1.34148,-15.302226 5.86125,-17.785428 -2.72989,-0.872262 -5.94004,-0.369914 -7.95477,-0.0068 z"
         style="fill:#a3a3a3;fill-opacity:1;stroke:#000000;stroke-width:0.30040792px;stroke-linecap:butt;stroke-linejoin:miter;stroke-opacity:1"
         id="path5906" />
      <path
         sodipodi:nodetypes="cccccc"
         inkscape:connector-curvature="0"
         d="m 132.4127,-37.765411 c 2.50828,0.60665 8.05065,6.367255 8.34739,10.822458 -0.90659,0.780448 -1.50783,1.760042 -1.98959,2.885674 -0.35723,1.176698 -0.51532,2.393221 -0.60703,3.689406 0,0 -3.98852,0.07543 -11.4692,0.347491 0.20762,-5.671985 0.81583,-14.905329 5.71843,-17.745029 z"
         style="fill:#b1b1b1;fill-opacity:1;stroke:#000000;stroke-width:0.30040792px;stroke-linecap:butt;stroke-linejoin:miter;stroke-opacity:1"
         id="path5908" />
      <path
         sodipodi:nodetypes="cccaccccc"
         inkscape:connector-curvature="0"
         d="m 117.62134,-19.662827 c -2.12936,0.103211 -4.98859,0.292089 -7.48534,0.443081 0.35094,3.900607 1.02171,6.073199 2.52961,8.815335 2.44342,4.0457048 4.8687,5.5286295 7.99763,7.350895 1.29353,0.753345 2.71649,1.1225403 4.27468,1.3761777 -1.03469,-1.17978 -1.85535,-1.7327439 -2.89004,-3.1190574 -1.08298,-1.5252221 -1.99698,-3.3133042 -2.57302,-5.0262843 -0.68951,-1.666576 -1.17987,-3.226943 -1.3516,-4.760757 -0.2868,-1.653301 -0.50721,-3.426089 -0.50192,-5.07939 z"
         style="fill:#8e8e8e;fill-opacity:1;stroke:#000000;stroke-width:0.30040792px;stroke-linecap:butt;stroke-linejoin:miter;stroke-opacity:1"
         id="path5910" />
      <path
         id="path5912"
         style="fill:#8e8e8e;fill-opacity:1;stroke:#000000;stroke-width:0.30040792px;stroke-linecap:butt;stroke-linejoin:miter;stroke-opacity:1"
         d="m 117.59273,-19.624478 c -2.13094,0.06238 -4.96965,0.281864 -7.47059,0.32512 0.0884,-2.902346 0.61383,-5.895482 1.83775,-9.117847 2.30588,-4.406996 6.56792,-6.96184 7.89413,-7.624271 1.43172,-0.658829 3.46899,-1.540008 4.7981,-1.807497 -1.19225,0.991006 -2.12095,2.412016 -3.01836,3.834629 -1.08081,1.564851 -1.74211,3.001257 -2.3295,4.713949 -0.55807,1.715068 -1.23458,2.977274 -1.57882,4.625997 0.0548,1.697127 -0.0804,3.428571 -0.13271,5.04992 z"
         inkscape:connector-curvature="0"
         sodipodi:nodetypes="ccccccccc" />
      <path
         id="path5914"
         style="fill:#b1b1b1;fill-opacity:1;stroke:#000000;stroke-width:0.30040792px;stroke-linecap:butt;stroke-linejoin:miter;stroke-opacity:1"
         d="m 135.56871,-2.3491413 c 2.87857,-3.4409986 5.5112,-8.5941177 4.91152,-13.1902967 -0.97569,-0.692128 -1.20135,-1.411977 -1.78639,-2.487552 -0.46585,-1.138077 -0.2592,-1.099757 -0.47188,-2.381661 0,0 -4.09754,-0.03353 -11.57083,0.396067 -0.16498,6.264884 2.50456,17.0662978 6.4301,18.4254635 0.78933,-0.1831978 1.71143,-0.4062297 2.48748,-0.7620208 z"
         inkscape:connector-curvature="0"
         sodipodi:nodetypes="ccccccc" />
      <path
         sodipodi:nodetypes="ccccc"
         inkscape:connector-curvature="0"
         id="path5916"
         d="m 138.26892,-20.427999 8.875,-0.477946 c -0.33353,-8.31491 -7.16745,-15.442174 -14.68546,-16.959034 5.54064,3.646552 7.67799,7.577129 8.41261,10.958154 -2.11535,1.708216 -2.53134,4.000587 -2.60215,6.478826 z"
         style="fill:#a3a3a3;fill-opacity:1;stroke:#000000;stroke-width:0.30040792px;stroke-linecap:butt;stroke-linejoin:miter;stroke-opacity:1" />
      <path
         style="fill:#9d9d9d;fill-opacity:1;stroke:#000000;stroke-width:0.30040792px;stroke-linecap:butt;stroke-linejoin:miter;stroke-opacity:1"
         d="m 138.26757,-20.404872 8.88031,-0.452462 c 0.48905,7.827306 -4.7998,15.7781725 -11.69819,18.563621 4.21542,-4.4649841 4.66407,-9.767085 5.03106,-13.207483 -1.79084,-1.935618 -2.29564,-3.414791 -2.21318,-4.903676 z"
         id="path5918"
         inkscape:connector-curvature="0"
         sodipodi:nodetypes="ccccc" />
      <path
         id="path5920"
         d="m 145.63518,-26.808733 -4.89967,-0.06871 c -1.85802,1.224379 -2.57436,3.945507 -2.54699,6.170502 0.0233,1.892681 0.73073,4.128332 2.29505,5.194014 l 5.59204,0.219301"
         style="fill:url(#linearGradient6044);fill-opacity:1;stroke:#000000;stroke-width:0.33211404px;stroke-linecap:butt;stroke-linejoin:miter;stroke-opacity:1;display:inline"
         inkscape:connector-curvature="0" />
      <path
         sodipodi:nodetypes="scscs"
         inkscape:connector-curvature="0"
         id="path5922"
         d="m 143.56675,-20.59618 c 0.5537,5.300331 2.50343,5.300656 2.50343,5.300656 1.70211,-1.097117 2.15714,-3.622331 2.10128,-5.622652 -0.0597,-2.13696 -0.75886,-4.702736 -2.53628,-5.889031 0,0 -2.62212,0.910692 -2.06843,6.211027 z"
         style="fill:url(#radialGradient6041);fill-opacity:1;stroke:#000000;stroke-width:0.33211404px;stroke-linecap:butt;stroke-linejoin:miter;stroke-opacity:1;display:inline" />
      <path
         sodipodi:end="12.411947"
         sodipodi:start="6.1543283"
         transform="matrix(0.31922104,0.64917772,-0.04276954,0.33195124,76.641748,-220.34512)"
         d="m 239.77256,134.99582 c 0.17253,4.30677 -0.76698,8.2505 -2.09845,8.80855 -1.33147,0.55805 -2.5507,-2.4809 -2.72322,-6.78767 -0.17253,-4.30678 0.76698,-8.2505 2.09845,-8.80856 1.30746,-0.54798 2.51167,2.37492 2.71445,6.58866"
         sodipodi:ry="7.8633027"
         sodipodi:rx="2.4309936"
         sodipodi:cy="136.00626"
         sodipodi:cx="237.36172"
         id="path5924"
         style="fill:#000000;fill-opacity:1;stroke:#000000;stroke-width:0.53053719;stroke-linecap:round;stroke-linejoin:round;stroke-miterlimit:4;stroke-opacity:1;stroke-dasharray:none;stroke-dashoffset:0;display:inline"
         sodipodi:type="arc"
         sodipodi:open="true" />
      <path
         sodipodi:nodetypes="cccccccccccc"
         inkscape:connector-curvature="0"
         id="path5926"
         d="m 101.76788,-40.170408 -12.117681,21.68088 -5.420694,-9.202858 -8.079301,16.020812 0,0.400612 0.351424,0.161775 7.578641,-10.394378 5.544246,7.279911 13.411825,-17.520583 23.73825,15.19882 0.0912,-7.765419 z"
         style="fill:url(#linearGradient6037);fill-opacity:1;stroke:#000000;stroke-width:0.30040792px;stroke-linecap:butt;stroke-linejoin:miter;stroke-opacity:1;display:inline" />
      <path
         transform="matrix(0.89945049,0,0,0.89945049,15.176135,-38.505679)"
         d="m 153.08862,19.454454 c 0,1.708544 -1.38505,3.093593 -3.09359,3.093593 -1.70855,0 -3.0936,-1.385049 -3.0936,-3.093593 0,-1.708543 1.38505,-3.093592 3.0936,-3.093592 1.70854,0 3.09359,1.385049 3.09359,3.093592 z"
         sodipodi:ry="3.0935922"
         sodipodi:rx="3.0935922"
         sodipodi:cy="19.454454"
         sodipodi:cx="149.99503"
         id="path5950"
         style="fill:url(#radialGradient6067);fill-opacity:1;fill-rule:nonzero;stroke:none"
         sodipodi:type="arc" />
      <path
         style="fill:url(#linearGradient6034);fill-opacity:1;stroke:#000000;stroke-width:0.1;stroke-linecap:butt;stroke-linejoin:miter;stroke-miterlimit:4;stroke-opacity:1;stroke-dasharray:none"
         d="m 144.10334,-26.777813 3.86095,-1.236924 2.32142,3.392857 -0.17857,0.803572 -0.12925,-0.764671 -1.97295,-2.430679 -2.65119,0.260661 z"
         id="path5928"
         inkscape:connector-curvature="0"
         sodipodi:nodetypes="cccccccc" />
      <path
         sodipodi:nodetypes="cccccccc"
         inkscape:connector-curvature="0"
         id="path5930"
         d="m 144.06986,-15.244963 3.86094,1.236924 2.32143,-3.392857 -0.17857,-0.803572 -0.12925,0.764671 -1.97296,2.430679 -2.65118,-0.260661 z"
         style="fill:url(#linearGradient6031);fill-opacity:1;stroke:#000000;stroke-width:0.1;stroke-linecap:butt;stroke-linejoin:miter;stroke-miterlimit:4;stroke-opacity:1;stroke-dasharray:none" />
      <path
         style="fill:url(#linearGradient6028);fill-opacity:1;stroke:#000000;stroke-width:0.1;stroke-linecap:butt;stroke-linejoin:miter;stroke-miterlimit:4;stroke-opacity:1;stroke-dasharray:none"
         d="m 140.82143,-21.586165 0,1.294642 5.84821,-0.223214 2.23214,-0.982143 -2.5,0.04464 z"
         id="path5932"
         inkscape:connector-curvature="0" />
    </g>
  </g>
</svg>
