<?xml version="1.0" encoding="UTF-8" standalone="no"?>
<!-- Created with Inkscape (http://www.inkscape.org/) -->

<svg
   xmlns:dc="http://purl.org/dc/elements/1.1/"
   xmlns:cc="http://creativecommons.org/ns#"
   xmlns:rdf="http://www.w3.org/1999/02/22-rdf-syntax-ns#"
   xmlns:svg="http://www.w3.org/2000/svg"
   xmlns="http://www.w3.org/2000/svg"
   xmlns:xlink="http://www.w3.org/1999/xlink"
   xmlns:sodipodi="http://sodipodi.sourceforge.net/DTD/sodipodi-0.dtd"
   xmlns:inkscape="http://www.inkscape.org/namespaces/inkscape"
   width="714"
   height="166"
   id="svg2"
   version="1.1"
   inkscape:version="0.48.0 r9654"
   sodipodi:docname="projectile_sprites.svg"
   inkscape:export-filename="/var/www/prototypes/defence/images/projectiles.png"
   inkscape:export-xdpi="90"
   inkscape:export-ydpi="90">
  <defs
     id="defs4">
    <linearGradient
       id="linearGradient5435">
      <stop
         style="stop-color:#d4aa00;stop-opacity:1;"
         offset="0"
         id="stop5437" />
      <stop
         id="stop5443"
         offset="0.87559509"
         style="stop-color:#d4aa00;stop-opacity:0.49803922;" />
      <stop
         style="stop-color:#d4aa00;stop-opacity:0;"
         offset="1"
         id="stop5439" />
    </linearGradient>
    <linearGradient
       inkscape:collect="always"
       id="linearGradient5255">
      <stop
         style="stop-color:#800080;stop-opacity:1;"
         offset="0"
         id="stop5257" />
      <stop
         style="stop-color:#800080;stop-opacity:0;"
         offset="1"
         id="stop5259" />
    </linearGradient>
    <linearGradient
       id="linearGradient5241">
      <stop
         style="stop-color:#ff0000;stop-opacity:1;"
         offset="0"
         id="stop5243" />
      <stop
         id="stop5249"
         offset="0.84848487"
         style="stop-color:#ff0000;stop-opacity:0.49803922;" />
      <stop
         style="stop-color:#ff0000;stop-opacity:0;"
         offset="1"
         id="stop5245" />
    </linearGradient>
    <linearGradient
       id="linearGradient5213">
      <stop
         style="stop-color:#008000;stop-opacity:1;"
         offset="0"
         id="stop5215" />
      <stop
         id="stop5221"
         offset="0.81996518"
         style="stop-color:#00c200;stop-opacity:1" />
      <stop
         style="stop-color:#008000;stop-opacity:0;"
         offset="1"
         id="stop5217" />
    </linearGradient>
    <linearGradient
       id="linearGradient3762">
      <stop
         style="stop-color:#00ff00;stop-opacity:1;"
         offset="0"
         id="stop3764" />
      <stop
         style="stop-color:#00ff00;stop-opacity:0;"
         offset="1"
         id="stop3766" />
    </linearGradient>
    <radialGradient
       inkscape:collect="always"
       xlink:href="#linearGradient5213"
       id="radialGradient5233"
       gradientUnits="userSpaceOnUse"
       gradientTransform="matrix(1.0122271,-0.00604131,0.00305429,0.51175021,-4.0193058,92.574256)"
       cx="282.23221"
       cy="186.11214"
       fx="282.23221"
       fy="186.11214"
       r="3.750062" />
    <radialGradient
       inkscape:collect="always"
       xlink:href="#linearGradient5255-9"
       id="radialGradient5261-6"
       cx="274.06702"
       cy="207.87466"
       fx="274.06702"
       fy="207.87466"
       r="24.559334"
       gradientTransform="matrix(1.717241,5.3779402e-8,0,0.07969152,-196.57209,191.3088)"
       gradientUnits="userSpaceOnUse" />
    <linearGradient
       inkscape:collect="always"
       id="linearGradient5255-9">
      <stop
         style="stop-color:#800080;stop-opacity:1;"
         offset="0"
         id="stop5257-9" />
      <stop
         style="stop-color:#800080;stop-opacity:0;"
         offset="1"
         id="stop5259-1" />
    </linearGradient>
    <radialGradient
       inkscape:collect="always"
       xlink:href="#linearGradient5255-99"
       id="radialGradient5261-5"
       cx="274.06702"
       cy="207.87466"
       fx="274.06702"
       fy="207.87466"
       r="24.559334"
       gradientTransform="matrix(1.717241,5.3779402e-8,0,0.07969152,-196.57209,191.3088)"
       gradientUnits="userSpaceOnUse" />
    <linearGradient
       inkscape:collect="always"
       id="linearGradient5255-99">
      <stop
         style="stop-color:#800080;stop-opacity:1;"
         offset="0"
         id="stop5257-99" />
      <stop
         style="stop-color:#800080;stop-opacity:0;"
         offset="1"
         id="stop5259-3" />
    </linearGradient>
    <radialGradient
       inkscape:collect="always"
       xlink:href="#linearGradient5241-4"
       id="radialGradient5247-6"
       cx="282.63394"
       cy="197.58539"
       fx="282.63394"
       fy="197.58539"
       r="2.9464285"
       gradientTransform="matrix(1,0,0,0.98484846,0,2.9937226)"
       gradientUnits="userSpaceOnUse" />
    <linearGradient
       id="linearGradient5241-4">
      <stop
         style="stop-color:#ff0000;stop-opacity:1;"
         offset="0"
         id="stop5243-5" />
      <stop
         id="stop5249-7"
         offset="0.84848487"
         style="stop-color:#ff0000;stop-opacity:0.49803922;" />
      <stop
         style="stop-color:#ff0000;stop-opacity:0;"
         offset="1"
         id="stop5245-8" />
    </linearGradient>
    <radialGradient
       inkscape:collect="always"
       xlink:href="#linearGradient5241"
       id="radialGradient7302"
       gradientUnits="userSpaceOnUse"
       gradientTransform="matrix(1,0,0,0.98484846,0,2.9937226)"
       cx="282.63394"
       cy="197.58539"
       fx="282.63394"
       fy="197.58539"
       r="2.9464285" />
    <radialGradient
       inkscape:collect="always"
       xlink:href="#linearGradient5241-4"
       id="radialGradient7308"
       gradientUnits="userSpaceOnUse"
       gradientTransform="matrix(1,0,0,0.98484846,0,2.9937226)"
       cx="282.63394"
       cy="197.58539"
       fx="282.63394"
       fy="197.58539"
       r="2.9464285" />
    <radialGradient
       inkscape:collect="always"
       xlink:href="#linearGradient5435"
       id="radialGradient7310"
       gradientUnits="userSpaceOnUse"
       cx="269.7991"
       cy="196.71486"
       fx="269.7991"
       fy="196.71486"
       r="1.5848215" />
    <radialGradient
       inkscape:collect="always"
       xlink:href="#linearGradient5255"
       id="radialGradient7335"
       gradientUnits="userSpaceOnUse"
       gradientTransform="matrix(23.340835,7.3097259e-7,0,1.0831715,-6018.3292,187.71092)"
       cx="274.06702"
       cy="207.87466"
       fx="274.06702"
       fy="207.87466"
       r="24.559334" />
    <radialGradient
       inkscape:collect="always"
       xlink:href="#linearGradient5255-9"
       id="radialGradient7341"
       gradientUnits="userSpaceOnUse"
       gradientTransform="matrix(23.340835,7.3097259e-7,0,1.0831715,-6018.3292,346.4645)"
       cx="274.06702"
       cy="207.87466"
       fx="274.06702"
       fy="207.87466"
       r="24.559334" />
    <radialGradient
       inkscape:collect="always"
       xlink:href="#linearGradient5255-99"
       id="radialGradient7347"
       gradientUnits="userSpaceOnUse"
       gradientTransform="matrix(23.340835,7.3097259e-7,0,1.0831715,-6020.9036,494.92073)"
       cx="274.06702"
       cy="207.87466"
       fx="274.06702"
       fy="207.87466"
       r="24.559334" />
    <linearGradient
       id="linearGradient4312">
      <stop
         id="stop4314"
         offset="0"
         style="stop-color:#ff1a1a;stop-opacity:1;" />
      <stop
         id="stop4316"
         offset="1"
         style="stop-color:#000000;stop-opacity:1;" />
    </linearGradient>
    <radialGradient
       gradientUnits="userSpaceOnUse"
       gradientTransform="matrix(1,0,0,1.9416884,0,-172.09084)"
       r="2.0783634"
       fy="182.74712"
       fx="134.03462"
       cy="182.74712"
       cx="134.03462"
       id="radialGradient4269-6"
       xlink:href="#linearGradient4263-8"
       inkscape:collect="always" />
    <linearGradient
       id="linearGradient4263-8">
      <stop
         id="stop4265-6"
         offset="0"
         style="stop-color:#ff1a1a;stop-opacity:1;" />
      <stop
         id="stop4267-9"
         offset="1"
         style="stop-color:#000000;stop-opacity:1;" />
    </linearGradient>
    <linearGradient
       id="linearGradient4263">
      <stop
         id="stop4265"
         offset="0"
         style="stop-color:#ff1a1a;stop-opacity:1;" />
      <stop
         id="stop4267"
         offset="1"
         style="stop-color:#000000;stop-opacity:1;" />
    </linearGradient>
    <radialGradient
       inkscape:collect="always"
       xlink:href="#linearGradient5241-4"
       id="radialGradient8040"
       gradientUnits="userSpaceOnUse"
       gradientTransform="matrix(1,0,0,0.98484846,0,2.9937226)"
       cx="282.63394"
       cy="197.58539"
       fx="282.63394"
       fy="197.58539"
       r="2.9464285" />
    <radialGradient
       inkscape:collect="always"
       xlink:href="#linearGradient5435"
       id="radialGradient8042"
       gradientUnits="userSpaceOnUse"
       cx="269.7991"
       cy="196.71486"
       fx="269.7991"
       fy="196.71486"
       r="1.5848215" />
    <linearGradient
       id="linearGradient4987-4">
      <stop
         id="stop4989-3"
         offset="0"
         style="stop-color:#d4aa00;stop-opacity:1;" />
      <stop
         style="stop-color:#d4aa00;stop-opacity:0.49803922;"
         offset="0.93292683"
         id="stop4991-92" />
      <stop
         id="stop4993-0"
         offset="1"
         style="stop-color:#d4aa00;stop-opacity:0;" />
    </linearGradient>
    <linearGradient
       id="linearGradient4987-4-0">
      <stop
         id="stop4989-3-9"
         offset="0"
         style="stop-color:#d4aa00;stop-opacity:1;" />
      <stop
         style="stop-color:#d4aa00;stop-opacity:0.49803922;"
         offset="0.93292683"
         id="stop4991-92-3" />
      <stop
         id="stop4993-0-5"
         offset="1"
         style="stop-color:#d4aa00;stop-opacity:0;" />
    </linearGradient>
    <linearGradient
       id="linearGradient4987-4-2">
      <stop
         id="stop4989-3-6"
         offset="0"
         style="stop-color:#d4aa00;stop-opacity:1;" />
      <stop
         style="stop-color:#d4aa00;stop-opacity:0.49803922;"
         offset="0.93292683"
         id="stop4991-92-7" />
      <stop
         id="stop4993-0-2"
         offset="1"
         style="stop-color:#d4aa00;stop-opacity:0;" />
    </linearGradient>
    <radialGradient
       r="10"
       fy="150.93361"
       fx="622.67859"
       cy="150.93361"
       cx="622.67859"
       gradientTransform="matrix(1,0,0,0.73214288,0,40.428642)"
       gradientUnits="userSpaceOnUse"
       id="radialGradient5011-5-8"
       xlink:href="#linearGradient4987-4-6"
       inkscape:collect="always" />
    <linearGradient
       id="linearGradient4987-4-6">
      <stop
         id="stop4989-3-61"
         offset="0"
         style="stop-color:#d4aa00;stop-opacity:1;" />
      <stop
         style="stop-color:#d4aa00;stop-opacity:0.49803922;"
         offset="0.93292683"
         id="stop4991-92-2" />
      <stop
         id="stop4993-0-9"
         offset="1"
         style="stop-color:#d4aa00;stop-opacity:0;" />
    </linearGradient>
    <radialGradient
       inkscape:collect="always"
       xlink:href="#linearGradient4987-4"
       id="radialGradient3151"
       gradientUnits="userSpaceOnUse"
       gradientTransform="matrix(1,0,0,0.73214288,0,40.428642)"
       cx="622.67859"
       cy="150.93361"
       fx="622.67859"
       fy="150.93361"
       r="10" />
    <radialGradient
       inkscape:collect="always"
       xlink:href="#linearGradient4987-4-0"
       id="radialGradient3153"
       gradientUnits="userSpaceOnUse"
       gradientTransform="matrix(1,0,0,0.73214288,0,40.428642)"
       cx="622.67859"
       cy="150.93361"
       fx="622.67859"
       fy="150.93361"
       r="10" />
    <radialGradient
       inkscape:collect="always"
       xlink:href="#linearGradient4987-4-2"
       id="radialGradient3155"
       gradientUnits="userSpaceOnUse"
       gradientTransform="matrix(1,0,0,0.73214288,0,40.428642)"
       cx="622.67859"
       cy="150.93361"
       fx="622.67859"
       fy="150.93361"
       r="10" />
    <radialGradient
       inkscape:collect="always"
       xlink:href="#linearGradient4987-4-6"
       id="radialGradient3157"
       gradientUnits="userSpaceOnUse"
       gradientTransform="matrix(1,0,0,0.73214288,0,40.428642)"
       cx="622.67859"
       cy="150.93361"
       fx="622.67859"
       fy="150.93361"
       r="10" />
    <radialGradient
       inkscape:collect="always"
       xlink:href="#linearGradient5255-99"
       id="radialGradient3976"
       gradientUnits="userSpaceOnUse"
       gradientTransform="matrix(23.340835,7.3097259e-7,0,1.0831715,-6020.9036,494.92073)"
       cx="274.06702"
       cy="207.87466"
       fx="274.06702"
       fy="207.87466"
       r="24.559334" />
  </defs>
  <sodipodi:namedview
     id="base"
     pagecolor="#ffffff"
     bordercolor="#666666"
     borderopacity="1.0"
     inkscape:pageopacity="0.0"
     inkscape:pageshadow="2"
     inkscape:zoom="0.99876252"
     inkscape:cx="468.8285"
     inkscape:cy="-4.8006109"
     inkscape:document-units="px"
     inkscape:current-layer="layer1"
     showgrid="false"
     inkscape:window-width="1440"
     inkscape:window-height="851"
     inkscape:window-x="-2"
     inkscape:window-y="0"
     inkscape:window-maximized="1"
     showguides="true"
     inkscape:guide-bbox="true" />
  <metadata
     id="metadata7">
    <rdf:RDF>
      <cc:Work
         rdf:about="">
        <dc:format>image/svg+xml</dc:format>
        <dc:type
           rdf:resource="http://purl.org/dc/dcmitype/StillImage" />
        <dc:title />
      </cc:Work>
    </rdf:RDF>
  </metadata>
  <g
     inkscape:groupmode="layer"
     id="layer2"
     inkscape:label="Pattern"
     transform="translate(0,-886.36218)" />
  <g
     inkscape:label="Layer 1"
     inkscape:groupmode="layer"
     id="layer1"
     transform="translate(0,-886.36218)">
    <g
       id="g5235"
       transform="matrix(5.0910305,0,0,5.0910305,-1331.7611,94.859665)">
      <rect
         ry="1.7410643"
         y="184.14789"
         x="278.48215"
         height="3.9284778"
         width="7.500124"
         id="rect5211"
         style="fill:url(#radialGradient5233);fill-opacity:1;stroke:none" />
      <rect
         ry="0.80357146"
         y="185.30862"
         x="280.5134"
         height="1.6071429"
         width="3.5491073"
         id="rect5223"
         style="fill:#008000;fill-opacity:1;stroke:none" />
    </g>
    <g
       id="g7298"
       transform="matrix(0.50708358,0,0,0.50708358,-13.116514,885.70854)">
      <path
         transform="matrix(13.592055,0,0,13.592055,-3615.9245,-2441.6946)"
         d="m 285.58037,197.58539 c 0,1.60261 -1.31916,2.90178 -2.94643,2.90178 -1.62727,0 -2.94643,-1.29917 -2.94643,-2.90178 0,-1.60261 1.31916,-2.90179 2.94643,-2.90179 1.62727,0 2.94643,1.29918 2.94643,2.90179 z"
         sodipodi:ry="2.9017856"
         sodipodi:rx="2.9464285"
         sodipodi:cy="197.58539"
         sodipodi:cx="282.63394"
         id="path5239"
         style="fill:url(#radialGradient7302);fill-opacity:1;stroke:none"
         sodipodi:type="arc" />
      <path
         transform="matrix(13.592055,0,0,13.592055,-3441.1695,-2430.1657)"
         d="m 271.38392,196.71486 c 0,0.87527 -0.70954,1.58482 -1.58482,1.58482 -0.87527,0 -1.58482,-0.70955 -1.58482,-1.58482 0,-0.87527 0.70955,-1.58482 1.58482,-1.58482 0.87528,0 1.58482,0.70955 1.58482,1.58482 z"
         sodipodi:ry="1.5848215"
         sodipodi:rx="1.5848215"
         sodipodi:cy="196.71486"
         sodipodi:cx="269.7991"
         id="path5251"
         style="fill:#d4aa00;fill-opacity:1;stroke:none"
         sodipodi:type="arc" />
    </g>
    <g
       id="g7331"
       transform="matrix(1.0014531,0,0,1.0014531,111.12351,611.38722)">
      <rect
         rx="104.69162"
         ry="27.460098"
         y="385.41492"
         x="44.81142"
         height="54.920197"
         width="667.62366"
         id="rect5253"
         style="fill:url(#radialGradient7335);fill-opacity:1;stroke:none" />
      <rect
         ry="13.730049"
         rx="104.69162"
         y="406.00977"
         x="53.392742"
         height="13.730049"
         width="647.02856"
         id="rect5297"
         style="fill:#650065;fill-opacity:0.43269234;stroke:none" />
    </g>
    <g
       id="g7337"
       transform="matrix(1.0014531,0,0,1.0014531,111.12351,396.40294)">
      <rect
         rx="104.69162"
         ry="27.460098"
         y="544.16852"
         x="44.81142"
         height="54.920197"
         width="667.62366"
         id="rect5253-0"
         style="fill:url(#radialGradient7341);fill-opacity:1;stroke:none" />
      <rect
         ry="32.608868"
         rx="104.69162"
         y="556.18231"
         x="53.392742"
         height="32.608868"
         width="647.02856"
         id="rect5297-8"
         style="fill:#eeaaff;fill-opacity:1;stroke:none" />
    </g>
    <g
       id="g7343"
       transform="translate(113.763,193.73742)">
      <rect
         rx="104.69162"
         ry="27.460098"
         y="692.62476"
         x="42.236996"
         height="54.920197"
         width="667.62366"
         id="rect5253-4"
         style="fill:url(#radialGradient3976);fill-opacity:1;stroke:none" />
      <rect
         ry="13.730049"
         rx="104.69162"
         y="713.21954"
         x="50.81831"
         height="13.730049"
         width="647.02856"
         id="rect5297-2"
         style="fill:#650065;fill-opacity:0.43269234;stroke:none" />
    </g>
    <g
       id="g7304"
       transform="matrix(0.53292221,0,0,0.53292221,-201.11658,872.00574)">
      <g
         id="g8036"
         transform="translate(-1.2326303,-123.84547)">
        <path
           transform="matrix(32.332617,0,0,32.332617,-8591.2307,-6143.8458)"
           sodipodi:type="arc"
           style="fill:url(#radialGradient8040);fill-opacity:1;stroke:none"
           id="path5239-6"
           sodipodi:cx="282.63394"
           sodipodi:cy="197.58539"
           sodipodi:rx="2.9464285"
           sodipodi:ry="2.9017856"
           d="m 285.58037,197.58539 c 0,1.60261 -1.31916,2.90178 -2.94643,2.90178 -1.62727,0 -2.94643,-1.29917 -2.94643,-2.90178 0,-1.60261 1.31916,-2.90179 2.94643,-2.90179 1.62727,0 2.94643,1.29918 2.94643,2.90179 z" />
        <path
           sodipodi:type="arc"
           style="fill:url(#radialGradient8042);fill-opacity:1;stroke:none"
           id="path5251-4"
           sodipodi:cx="269.7991"
           sodipodi:cy="196.71486"
           sodipodi:rx="1.5848215"
           sodipodi:ry="1.5848215"
           d="m 271.38392,196.71486 c 0,0.87527 -0.70954,1.58482 -1.58482,1.58482 -0.87527,0 -1.58482,-0.70955 -1.58482,-1.58482 0,-0.87527 0.70955,-1.58482 1.58482,-1.58482 0.87528,0 1.58482,0.70955 1.58482,1.58482 z"
           transform="matrix(53.007855,0,0,53.007855,-13753.686,-10183.548)" />
      </g>
    </g>
    <g
       id="g3082"
       transform="matrix(0.5,0,0,0.5,49.917098,502.52092)">
      <path
         d="m 593.57143,173.07646 c 0,2.76143 -4.95685,5 -11.07143,5 -6.11458,0 -11.07143,-2.23857 -11.07143,-5 0,-2.76142 4.95685,-5 11.07143,-5 6.11458,0 11.07143,2.23858 11.07143,5 z"
         sodipodi:ry="5"
         sodipodi:rx="11.071428"
         sodipodi:cy="173.07646"
         sodipodi:cx="582.5"
         id="path4341"
         style="fill:#ffcc00;fill-opacity:1;stroke:none"
         sodipodi:type="arc"
         transform="translate(-541.26276,840.67343)" />
      <path
         transform="translate(-512.72595,824.25845)"
         d="m 562.65495,189.56564 c 0,1.60394 -2.2613,2.90419 -5.05076,2.90419 -2.78946,0 -5.05077,-1.30025 -5.05077,-2.90419 0,-1.60394 2.26131,-2.90419 5.05077,-2.90419 2.78946,0 5.05076,1.30025 5.05076,2.90419 z"
         sodipodi:ry="2.9041886"
         sodipodi:rx="5.0507627"
         sodipodi:cy="189.56564"
         sodipodi:cx="557.60419"
         id="path4343"
         style="fill:#d40000;fill-opacity:1;stroke:none"
         sodipodi:type="arc" />
    </g>
    <g
       transform="matrix(0.48677579,0,0,0.48677579,-281.32652,859.22198)"
       id="g3402">
      <path
         sodipodi:nodetypes="cccc"
         inkscape:connector-curvature="0"
         id="path5074"
         d="m 598.48382,56.383339 c -10.2106,2.440622 -14.39617,6.017503 -20.04522,7.670845 5.70371,0.608521 11.64402,6.011104 20.20305,5.618974 z"
         style="color:#000000;fill:#f1ff07;fill-opacity:0.59134617;stroke:#f1ff07;stroke-width:1;stroke-linecap:round;stroke-linejoin:miter;stroke-miterlimit:4;stroke-opacity:0.0432692;stroke-dasharray:none;stroke-dashoffset:0;marker:none;visibility:visible;display:inline;overflow:visible;enable-background:accumulate" />
      <path
         d="m 631.42859,150.93361 c 0,3.35316 -3.91751,6.07143 -8.75,6.07143 -4.83249,0 -8.75,-2.71827 -8.75,-6.07143 0,-3.35316 3.91751,-6.07143 8.75,-6.07143 4.83249,0 8.75,2.71827 8.75,6.07143 z"
         sodipodi:ry="6.0714288"
         sodipodi:rx="8.75"
         sodipodi:cy="150.93361"
         sodipodi:cx="622.67859"
         id="path4946-8"
         style="fill:#d45500;fill-opacity:1;stroke:url(#radialGradient3151);stroke-width:2.5;stroke-linecap:square;stroke-linejoin:round;stroke-miterlimit:4;stroke-opacity:1;stroke-dasharray:none"
         sodipodi:type="arc"
         transform="translate(-21.964302,-87.857142)" />
      <path
         sodipodi:nodetypes="cccc"
         inkscape:connector-curvature="0"
         id="path5074-9"
         d="m 626.66388,147.64344 c -10.2106,2.44062 -14.39617,6.0175 -20.04522,7.67084 5.70371,0.60852 11.64402,6.01111 20.20305,5.61898 z"
         style="color:#000000;fill:#f1ff07;fill-opacity:0.59134617;stroke:#f1ff07;stroke-width:1;stroke-linecap:round;stroke-linejoin:miter;stroke-miterlimit:4;stroke-opacity:0.0432692;stroke-dasharray:none;stroke-dashoffset:0;marker:none;visibility:visible;display:inline;overflow:visible;enable-background:accumulate" />
      <path
         d="m 631.42859,150.93361 c 0,3.35316 -3.91751,6.07143 -8.75,6.07143 -4.83249,0 -8.75,-2.71827 -8.75,-6.07143 0,-3.35316 3.91751,-6.07143 8.75,-6.07143 4.83249,0 8.75,2.71827 8.75,6.07143 z"
         sodipodi:ry="6.0714288"
         sodipodi:rx="8.75"
         sodipodi:cy="150.93361"
         sodipodi:cx="622.67859"
         id="path4946-8-3"
         style="fill:#d45500;fill-opacity:1;stroke:url(#radialGradient3153);stroke-width:2.5;stroke-linecap:square;stroke-linejoin:round;stroke-miterlimit:4;stroke-opacity:1;stroke-dasharray:none"
         sodipodi:type="arc"
         transform="translate(6.2157618,3.4029598)" />
      <path
         sodipodi:nodetypes="cccc"
         inkscape:connector-curvature="0"
         id="path5074-95"
         d="m 636.26033,164.05842 c -10.2106,2.44062 -14.39617,6.0175 -20.04522,7.67084 5.70371,0.60853 11.64402,6.01111 20.20305,5.61898 z"
         style="color:#000000;fill:#f1ff07;fill-opacity:0.59134617;stroke:#f1ff07;stroke-width:1;stroke-linecap:round;stroke-linejoin:miter;stroke-miterlimit:4;stroke-opacity:0.0432692;stroke-dasharray:none;stroke-dashoffset:0;marker:none;visibility:visible;display:inline;overflow:visible;enable-background:accumulate" />
      <path
         d="m 631.42859,150.93361 c 0,3.35316 -3.91751,6.07143 -8.75,6.07143 -4.83249,0 -8.75,-2.71827 -8.75,-6.07143 0,-3.35316 3.91751,-6.07143 8.75,-6.07143 4.83249,0 8.75,2.71827 8.75,6.07143 z"
         sodipodi:ry="6.0714288"
         sodipodi:rx="8.75"
         sodipodi:cy="150.93361"
         sodipodi:cx="622.67859"
         id="path4946-8-7"
         style="fill:#d45500;fill-opacity:1;stroke:url(#radialGradient3155);stroke-width:2.5;stroke-linecap:square;stroke-linejoin:round;stroke-miterlimit:4;stroke-opacity:1;stroke-dasharray:none"
         sodipodi:type="arc"
         transform="translate(15.812212,19.817939)" />
      <path
         sodipodi:nodetypes="cccc"
         inkscape:connector-curvature="0"
         id="path5074-1"
         d="m 625.90627,169.10918 c -10.2106,2.44062 -14.39617,6.01751 -20.04522,7.67085 5.70371,0.60852 11.64402,6.0111 20.20305,5.61897 z"
         style="color:#000000;fill:#f1ff07;fill-opacity:0.59134617;stroke:#f1ff07;stroke-width:1;stroke-linecap:round;stroke-linejoin:miter;stroke-miterlimit:4;stroke-opacity:0.0432692;stroke-dasharray:none;stroke-dashoffset:0;marker:none;visibility:visible;display:inline;overflow:visible;enable-background:accumulate" />
      <path
         d="m 631.42859,150.93361 c 0,3.35316 -3.91751,6.07143 -8.75,6.07143 -4.83249,0 -8.75,-2.71827 -8.75,-6.07143 0,-3.35316 3.91751,-6.07143 8.75,-6.07143 4.83249,0 8.75,2.71827 8.75,6.07143 z"
         sodipodi:ry="6.0714288"
         sodipodi:rx="8.75"
         sodipodi:cy="150.93361"
         sodipodi:cx="622.67859"
         id="path4946-8-8"
         style="fill:#d45500;fill-opacity:1;stroke:url(#radialGradient3157);stroke-width:2.5;stroke-linecap:square;stroke-linejoin:round;stroke-miterlimit:4;stroke-opacity:1;stroke-dasharray:none"
         sodipodi:type="arc"
         transform="translate(5.4581483,24.868702)" />
    </g>
    <g
       style="display:inline"
       id="g3223"
       transform="matrix(0.99997187,0,0,0.99997187,-561.34351,914.1948)">
      <path
         transform="matrix(0.98521521,0,0,0.98521521,163.45072,-329.3182)"
         d="m 485.35715,460.93362 c 0,4.14214 -3.35787,7.5 -7.5,7.5 -4.14214,0 -7.5,-3.35786 -7.5,-7.5 0,-4.14213 3.35786,-7.5 7.5,-7.5 4.14213,0 7.5,3.35787 7.5,7.5 z"
         sodipodi:ry="7.5"
         sodipodi:rx="7.5"
         sodipodi:cy="460.93362"
         sodipodi:cx="477.85715"
         id="path3807"
         style="fill:#000000;fill-opacity:1;stroke:#000000;stroke-width:1;stroke-linecap:square;stroke-linejoin:round;stroke-miterlimit:4;stroke-opacity:1;stroke-dasharray:none"
         sodipodi:type="arc" />
      <path
         sodipodi:nodetypes="cccc"
         inkscape:connector-curvature="0"
         id="path3809"
         d="m 632.13168,119.65462 c 3.14601,-0.16756 6.32073,1.5482 7.52106,3.82649 -0.0812,-1.53939 -0.82206,-2.63897 -2.59498,-3.78251 -2.11481,-0.7605 -3.45225,-0.6628 -4.92608,-0.0439 z"
         style="color:#000000;fill:#ffffff;stroke:none;stroke-width:1;marker:none;visibility:visible;display:inline;overflow:visible;enable-background:accumulate" />
    </g>
    <g
       style="display:inline"
       id="g3184"
       transform="matrix(0.35,0,0,0.35,-134.81726,981.1996)">
      <path
         inkscape:connector-curvature="0"
         id="path3829"
         d="m 485.44516,26.646168 c -9.32256,0.05686 -17.55054,7.201557 -21.06464,15.503966 -2.49453,5.874022 -2.53301,12.898804 0.5812,18.551321 -5.69778,-0.376718 -11.6305,0.797602 -16.3836,4.068404 -2.3894,-3.182442 -6.60057,-4.855281 -9.94042,-7.097153 -9.63969,-5.318839 -20.20575,-10.364492 -31.52909,-9.333563 -10.46765,-0.278675 -18.69842,9.017112 -20.73478,18.676979 -3.44285,18.359795 4.74511,38.462778 20.04361,49.197928 -3.04837,4.83977 -5.33423,10.42046 -6.99472,15.98946 -1.99264,8.35946 -2.43027,17.37711 -0.1368,25.71569 4.77348,15.57909 19.69195,27.26133 35.95596,28.11759 9.10314,0.84774 18.33466,-0.44788 26.81382,-3.86421 0.60303,10.18859 9.77604,18.26918 19.43098,20.16927 12.98826,2.35292 28.0632,-3.01248 34.19563,-15.27303 1.50766,-2.7834 2.16807,-6.17843 2.09018,-9.16887 6.30493,0.46669 12.94052,0.22379 18.36284,-3.44006 13.43208,-8.20816 22.62749,-23.90225 21.64582,-39.80447 -1.08117,-12.96982 -9.95332,-24.14934 -21.08313,-30.34648 2.75182,-2.31495 6.50009,-5.172157 8.61087,-8.656863 6.05524,-8.640309 5.99883,-21.238003 -1.09959,-29.279977 3.5901,-1.764182 2.05646,-6.564151 2.35625,-9.801906 -0.13174,-9.107498 -5.75389,-18.098037 -14.60861,-21.001776 -8.09326,-3.128312 -18.05088,-2.52125 -25.02306,3.000262 -4.46916,-6.509768 -11.45425,-12.847038 -19.93366,-11.938219 -0.51836,0.0056 -1.03673,0.01126 -1.55509,0.01689 z"
         style="fill:#999999;fill-opacity:1;stroke:none" />
      <g
         id="g6268">
        <path
           style="color:#000000;fill:none;stroke:#000000;stroke-width:2.81490064;stroke-linecap:round;stroke-linejoin:miter;stroke-miterlimit:4;stroke-opacity:1;stroke-dasharray:none;stroke-dashoffset:0;marker:none;visibility:visible;display:inline;overflow:visible;enable-background:accumulate"
           d="m 448.52515,65.182411 c -85.99482,-59.9808876 -74.87,67.349029 -12.79567,56.158699"
           id="path3813"
           inkscape:connector-curvature="0"
           sodipodi:nodetypes="cc" />
        <path
           style="color:#000000;fill:none;stroke:#000000;stroke-width:2.81490064;stroke-linecap:round;stroke-linejoin:miter;stroke-miterlimit:4;stroke-opacity:1;stroke-dasharray:none;stroke-dashoffset:0;marker:none;visibility:visible;display:inline;overflow:visible;enable-background:accumulate"
           d="m 406.58383,117.78677 c -28.2006,50.74359 23.89519,91.59281 76.77391,51.18263"
           id="path3815"
           inkscape:connector-curvature="0"
           sodipodi:nodetypes="cc" />
        <path
           style="color:#000000;fill:none;stroke:#000000;stroke-width:2.81490064;stroke-linecap:round;stroke-linejoin:miter;stroke-miterlimit:4;stroke-opacity:1;stroke-dasharray:none;stroke-dashoffset:0;marker:none;visibility:visible;display:inline;overflow:visible;enable-background:accumulate"
           d="m 462.74253,181.05419 c 3.92516,32.09558 54.45364,24.17105 54.02611,-3.55435 m -10.66307,-7.10869 c 28.74698,28.65867 80.37358,-38.19781 28.4348,-66.1109 27.8707,-16.35333 13.02962,-58.535966 -29.14565,-41.230436"
           id="path3817"
           inkscape:connector-curvature="0"
           sodipodi:nodetypes="ccccc" />
        <path
           style="color:#000000;fill:none;stroke:#000000;stroke-width:2.81490064;stroke-linecap:round;stroke-linejoin:miter;stroke-miterlimit:4;stroke-opacity:1;stroke-dasharray:none;stroke-dashoffset:0;marker:none;visibility:visible;display:inline;overflow:visible;enable-background:accumulate"
           d="m 544.49254,68.025883 c 8.19938,-36.182648 -29.05163,-38.3544 -37.67609,-27.7239 -18.46243,-30.239943 -53.06088,-1.296628 -40.72038,20.363863"
           id="path3819"
           inkscape:connector-curvature="0"
           sodipodi:nodetypes="ccc" />
        <path
           style="color:#000000;fill:none;stroke:#000000;stroke-width:2.81490064;stroke-linecap:round;stroke-linejoin:miter;stroke-miterlimit:4;stroke-opacity:1;stroke-dasharray:none;stroke-dashoffset:0;marker:none;visibility:visible;display:inline;overflow:visible;enable-background:accumulate"
           d="M 477.6708,64.471536 C 434.07806,49.242192 428.73473,100.59808 454.21209,113.52154"
           id="path3821"
           inkscape:connector-curvature="0"
           sodipodi:nodetypes="cc" />
        <path
           style="color:#000000;fill:none;stroke:#000000;stroke-width:2.81490064;stroke-linecap:round;stroke-linejoin:miter;stroke-miterlimit:4;stroke-opacity:1;stroke-dasharray:none;stroke-dashoffset:0;marker:none;visibility:visible;display:inline;overflow:visible;enable-background:accumulate"
           d="m 456.34472,132.00418 c -4.31294,16.3888 22.81595,28.76719 31.98912,4.97607 12.28881,19.64556 45.16221,-0.48216 20.61523,-21.32608"
           id="path3823"
           inkscape:connector-curvature="0"
           sodipodi:nodetypes="ccc" />
      </g>
    </g>
  </g>
</svg>
