<?xml version="1.0" encoding="UTF-8" standalone="no"?>
<!-- Created with Inkscape (http://www.inkscape.org/) -->

<svg
   xmlns:dc="http://purl.org/dc/elements/1.1/"
   xmlns:cc="http://creativecommons.org/ns#"
   xmlns:rdf="http://www.w3.org/1999/02/22-rdf-syntax-ns#"
   xmlns:svg="http://www.w3.org/2000/svg"
   xmlns="http://www.w3.org/2000/svg"
   xmlns:sodipodi="http://sodipodi.sourceforge.net/DTD/sodipodi-0.dtd"
   xmlns:inkscape="http://www.inkscape.org/namespaces/inkscape"
   width="151.77156"
   height="30.000061"
   id="svg2"
   version="1.1"
   inkscape:version="0.48.0 r9654"
   sodipodi:docname="Stat Icons.svg">
  <defs
     id="defs4" />
  <sodipodi:namedview
     id="base"
     pagecolor="#ffffff"
     bordercolor="#666666"
     borderopacity="1.0"
     inkscape:pageopacity="0.0"
     inkscape:pageshadow="2"
     inkscape:zoom="2.8284271"
     inkscape:cx="167.60436"
     inkscape:cy="33.119492"
     inkscape:document-units="px"
     inkscape:current-layer="layer1"
     showgrid="false"
     inkscape:window-width="1440"
     inkscape:window-height="851"
     inkscape:window-x="-2"
     inkscape:window-y="0"
     inkscape:window-maximized="1"
     fit-margin-top="0"
     fit-margin-left="0"
     fit-margin-right="0"
     fit-margin-bottom="0" />
  <metadata
     id="metadata7">
    <rdf:RDF>
      <cc:Work
         rdf:about="">
        <dc:format>image/svg+xml</dc:format>
        <dc:type
           rdf:resource="http://purl.org/dc/dcmitype/StillImage" />
        <dc:title></dc:title>
      </cc:Work>
    </rdf:RDF>
  </metadata>
  <g
     inkscape:label="Layer 1"
     inkscape:groupmode="layer"
     id="layer1"
     transform="translate(6.7571802e-8,-1022.3221)">
    <g
       id="g4902"
       transform="matrix(0.35109167,0,0,0.35109167,-6.6972093,1013.2318)">
      <path
         transform="matrix(2.6349532,0,0,2.6349532,-130.1759,-27.950097)"
         d="m 87.14286,36.647896 c 0,8.67876 -6.715728,15.714286 -15,15.714286 -8.284271,0 -15,-7.035526 -15,-15.714286 0,-8.678761 6.715729,-15.714286 15,-15.714286 8.284272,0 15,7.035525 15,15.714286 z"
         sodipodi:ry="15.714286"
         sodipodi:rx="15"
         sodipodi:cy="36.647896"
         sodipodi:cx="72.14286"
         id="path2985"
         style="fill:#d4aa00;fill-opacity:1;stroke:#d4aa00"
         sodipodi:type="arc" />
      <path
         inkscape:connector-curvature="0"
         id="path3755"
         d="m 66.034004,26.50319 c 71.284906,6.822647 71.284906,6.822647 71.284906,6.822647 l -15.99794,9.881075 57.6396,15.762666 -56.22802,17.880038 38.34796,12.468975 -48.93482,8.704758 9.6458,6.822641 -60.462759,6.35212 z"
         style="color:#000000;fill:#d4aa00;stroke:none;stroke-width:1;marker:none;visibility:visible;display:inline;overflow:visible;enable-background:accumulate" />
      <path
         d="m 87.14286,36.647896 c 0,8.67876 -6.715728,15.714286 -15,15.714286 -8.284271,0 -15,-7.035526 -15,-15.714286 0,-8.678761 6.715729,-15.714286 15,-15.714286 8.284272,0 15,7.035525 15,15.714286 z"
         sodipodi:ry="15.714286"
         sodipodi:rx="15"
         sodipodi:cy="36.647896"
         sodipodi:cx="72.14286"
         id="path2985-1"
         style="fill:#ff0000;fill-opacity:1;stroke:#ff0000"
         sodipodi:type="arc"
         transform="matrix(1.9565606,0,0,1.9565606,-79.213883,-2.910916)" />
      <path
         inkscape:connector-curvature="0"
         id="path3755-7"
         d="m 66.480005,37.522878 c 52.931955,5.066095 52.931955,5.066095 52.931955,5.066095 l -11.87912,7.337103 42.79976,11.704425 -41.75161,13.276657 28.47495,9.258727 -36.33613,6.463639 7.16241,5.066095 -44.896074,4.716711 z"
         style="color:#000000;fill:#ff0000;stroke:none;stroke-width:1;marker:none;visibility:visible;display:inline;overflow:visible;enable-background:accumulate" />
    </g>
    <g
       id="g4908"
       transform="matrix(0.30396084,0,0,0.30395977,-13.644825,1015.6573)">
      <path
         sodipodi:nodetypes="ccccc"
         inkscape:connector-curvature="0"
         id="path3778-4"
         d="M 337.80851,40.702881 C 320.3344,38.119473 308.77816,36.738808 287.58077,23.541905 266.38336,36.738813 254.82715,38.11948 237.353,40.702889 c 4.14847,57.263019 27.68861,72.585881 50.22777,78.305981 22.53912,-5.7201 46.07929,-21.04297 50.22774,-78.305989 z"
         style="color:#000000;fill:#00d400;stroke:#00d400;stroke-width:3.2303021;stroke-linecap:round;stroke-linejoin:miter;stroke-miterlimit:4;stroke-opacity:1;stroke-dasharray:none;stroke-dashoffset:0;marker:none;visibility:visible;display:inline;overflow:visible;enable-background:accumulate" />
      <path
         sodipodi:nodetypes="ccccc"
         inkscape:connector-curvature="0"
         id="path3778-4-5"
         d="M 324.79009,49.419307 C 311.82934,47.503166 303.258,46.479108 287.54322,36.690826 c -15.71473,9.788289 -24.2861,10.812342 -37.24687,12.728482 3.07694,42.472601 20.53697,53.837732 37.24687,58.080382 16.70991,-4.24265 34.16993,-15.607787 37.24687,-58.080383 z"
         style="color:#000000;fill:#005500;stroke:#005500;stroke-width:2.3959496;stroke-linecap:round;stroke-linejoin:miter;stroke-miterlimit:4;stroke-opacity:1;stroke-dasharray:none;stroke-dashoffset:0;marker:none;visibility:visible;display:inline;overflow:visible;enable-background:accumulate" />
    </g>
    <g
       id="g4912"
       transform="matrix(0.29054981,0,0,0.29054981,-32.93531,1014.9525)">
      <rect
         y="31.82015"
         x="475.86334"
         height="90.341248"
         width="7.9989729"
         id="rect3821-56"
         style="fill:#0000ff;fill-opacity:1;stroke:#0000ff;stroke-width:12.91127014;stroke-linecap:square;stroke-linejoin:miter;stroke-miterlimit:4;stroke-opacity:1;stroke-dasharray:none" />
      <rect
         transform="matrix(0.70710678,-0.70710678,0.70710678,0.70710678,0,0)"
         y="347.75247"
         x="280.70773"
         height="90.341248"
         width="7.9989729"
         id="rect3821-6-5"
         style="fill:#0000ff;fill-opacity:1;stroke:#0000ff;stroke-width:12.91127014;stroke-linecap:square;stroke-linejoin:miter;stroke-miterlimit:4;stroke-opacity:1;stroke-dasharray:none" />
      <rect
         transform="matrix(0.70710678,0.70710678,-0.70710678,0.70710678,0,0)"
         y="-330.87598"
         x="389.92175"
         height="90.341248"
         width="7.9989729"
         id="rect3821-69-9"
         style="fill:#0000ff;fill-opacity:1;stroke:#0000ff;stroke-width:12.91127014;stroke-linecap:square;stroke-linejoin:miter;stroke-miterlimit:4;stroke-opacity:1;stroke-dasharray:none" />
      <rect
         transform="matrix(0,1,-1,0,0,0)"
         y="-523.3866"
         x="72.520782"
         height="90.341248"
         width="7.9989729"
         id="rect3821-5-5"
         style="fill:#0000ff;fill-opacity:1;stroke:#0000ff;stroke-width:12.91127014;stroke-linecap:square;stroke-linejoin:miter;stroke-miterlimit:4;stroke-opacity:1;stroke-dasharray:none" />
      <rect
         y="35.934914"
         x="476.07761"
         height="82.111786"
         width="7.2703218"
         id="rect3821"
         style="fill:#00ffff;fill-opacity:1;stroke:#00ffff;stroke-width:2.39492702;stroke-linecap:square;stroke-linejoin:miter;stroke-miterlimit:4;stroke-opacity:1;stroke-dasharray:none" />
      <rect
         transform="matrix(0.70710678,-0.70710678,0.70710678,0.70710678,0,0)"
         y="351.83694"
         x="280.98114"
         height="82.111786"
         width="7.2703218"
         id="rect3821-6"
         style="fill:#00ffff;fill-opacity:1;stroke:#00ffff;stroke-width:2.39492702;stroke-linecap:square;stroke-linejoin:miter;stroke-miterlimit:4;stroke-opacity:1;stroke-dasharray:none" />
      <rect
         transform="matrix(0.70710678,0.70710678,-0.70710678,0.70710678,0,0)"
         y="-326.57935"
         x="390.16492"
         height="82.111786"
         width="7.2703218"
         id="rect3821-69"
         style="fill:#00ffff;fill-opacity:1;stroke:#00ffff;stroke-width:2.39492702;stroke-linecap:square;stroke-linejoin:miter;stroke-miterlimit:4;stroke-opacity:1;stroke-dasharray:none" />
      <rect
         transform="matrix(0,1,-1,0,0,0)"
         y="-519.27179"
         x="72.927971"
         height="82.111786"
         width="7.2703218"
         id="rect3821-5"
         style="fill:#00ffff;fill-opacity:1;stroke:#00ffff;stroke-width:2.39492702;stroke-linecap:square;stroke-linejoin:miter;stroke-miterlimit:4;stroke-opacity:1;stroke-dasharray:none" />
    </g>
    <g
       id="g4922"
       transform="matrix(0.31994083,0,0,0.31994083,-72.551082,1011.4479)">
      <path
         sodipodi:nodetypes="ccc"
         inkscape:connector-curvature="0"
         id="path3882"
         d="m 653.59105,95.384476 18.65288,2.945194 -2.85981,-18.567509"
         style="color:#000000;fill:none;stroke:#800080;stroke-width:5.1374135;stroke-linecap:square;stroke-linejoin:miter;stroke-miterlimit:4;stroke-opacity:1;stroke-dasharray:none;stroke-dashoffset:0;marker:none;visibility:visible;display:inline;overflow:visible;enable-background:accumulate" />
      <path
         sodipodi:nodetypes="ccc"
         inkscape:connector-curvature="0"
         id="path3882-9"
         d="m 639.84573,81.640088 -2.94521,-18.652824 18.56752,2.859792"
         style="color:#000000;fill:none;stroke:#800080;stroke-width:5.1374135;stroke-linecap:square;stroke-linejoin:miter;stroke-miterlimit:4;stroke-opacity:1;stroke-dasharray:none;stroke-dashoffset:0;marker:none;visibility:visible;display:inline;overflow:visible;enable-background:accumulate" />
      <path
         inkscape:connector-curvature="0"
         id="path3920"
         d="M 671.97456,98.157143 637.12336,63.305947"
         style="color:#000000;fill:none;stroke:#800080;stroke-width:5.1374135;stroke-linecap:round;stroke-linejoin:miter;stroke-miterlimit:4;stroke-opacity:1;stroke-dasharray:none;stroke-dashoffset:0;marker:none;visibility:visible;display:inline;overflow:visible;enable-background:accumulate" />
      <path
         transform="matrix(-2.9842313,-2.9842313,2.9842313,-2.9842313,405.66871,819.24429)"
         d="m 73.5,165.36218 c 0,1.31168 -1.063324,2.375 -2.375,2.375 -1.311676,0 -2.375,-1.06332 -2.375,-2.375 0,-1.31167 1.063324,-2.375 2.375,-2.375 1.311676,0 2.375,1.06333 2.375,2.375 z"
         sodipodi:ry="2.375"
         sodipodi:rx="2.375"
         sodipodi:cy="165.36218"
         sodipodi:cx="71.125"
         id="path3922"
         style="fill:#800080;fill-opacity:1;stroke:#ff00ff;stroke-width:2;stroke-linecap:square;stroke-linejoin:miter;stroke-miterlimit:4;stroke-opacity:1;stroke-dasharray:none"
         sodipodi:type="arc" />
      <path
         transform="matrix(-2.9842313,-2.9842313,2.9842313,-2.9842313,341.13471,753.96425)"
         d="m 73.5,165.36218 c 0,1.31168 -1.063324,2.375 -2.375,2.375 -1.311676,0 -2.375,-1.06332 -2.375,-2.375 0,-1.31167 1.063324,-2.375 2.375,-2.375 1.311676,0 2.375,1.06333 2.375,2.375 z"
         sodipodi:ry="2.375"
         sodipodi:rx="2.375"
         sodipodi:cy="165.36218"
         sodipodi:cx="71.125"
         id="path3922-6"
         style="fill:#800080;fill-opacity:1;stroke:#ff00ff;stroke-width:2;stroke-linecap:square;stroke-linejoin:miter;stroke-miterlimit:4;stroke-opacity:1;stroke-dasharray:none"
         sodipodi:type="arc" />
      <path
         inkscape:connector-curvature="0"
         id="path6428"
         d="m 680.75945,63.921863 -9.63243,4.00916 18.89439,-0.0534 z"
         style="color:#000000;fill:#ff00ff;stroke:#ff00ff;stroke-width:2.01392174;stroke-linecap:round;stroke-linejoin:round;stroke-miterlimit:4;stroke-opacity:1;stroke-dasharray:none;stroke-dashoffset:0;marker:none;visibility:visible;display:inline;overflow:visible;enable-background:accumulate" />
      <path
         inkscape:connector-curvature="0"
         id="path6426"
         d="m 677.72153,50.290713 c 6.15502,-0.16037 6.15502,-0.16037 6.15502,-0.16037"
         style="color:#000000;fill:#4d4d4d;stroke:#ff00ff;stroke-width:1.60370839;stroke-linecap:round;stroke-linejoin:miter;stroke-miterlimit:4;stroke-opacity:1;stroke-dasharray:none;stroke-dashoffset:0;marker:none;visibility:visible;display:inline;overflow:visible;enable-background:accumulate" />
      <path
         sodipodi:nodetypes="cc"
         inkscape:connector-curvature="0"
         id="path6424"
         d="m 680.75945,48.312853 -0.22229,19.71975"
         style="color:#000000;fill:#ff00ff;stroke:#ff00ff;stroke-width:4.6433053;stroke-linecap:round;stroke-linejoin:miter;stroke-miterlimit:4;stroke-opacity:1;stroke-dasharray:none;stroke-dashoffset:0;marker:none;visibility:visible;display:inline;overflow:visible;enable-background:accumulate" />
      <path
         sodipodi:nodetypes="ccc"
         inkscape:connector-curvature="0"
         id="path6362-7"
         d="m 687.03432,45.727783 -11.71202,0 c 0.11808,2.47163 4.44177,1.97732 4.59585,2.96596"
         style="color:#000000;fill:#4d4d4d;stroke:#ff00ff;stroke-width:5.7164259;stroke-linecap:square;stroke-linejoin:round;stroke-miterlimit:4;stroke-opacity:1;stroke-dasharray:none;stroke-dashoffset:0;marker:none;visibility:visible;display:inline;overflow:visible;enable-background:accumulate" />
      <path
         sodipodi:nodetypes="ccc"
         inkscape:connector-curvature="0"
         id="path6362-9-2"
         d="m 674.43309,45.741153 11.71202,0 c -0.11807,2.47165 -4.44175,1.97732 -4.59587,2.96598"
         style="color:#000000;fill:#ff00ff;stroke:#ff00ff;stroke-width:5.7164259;stroke-linecap:square;stroke-linejoin:round;stroke-miterlimit:4;stroke-opacity:1;stroke-dasharray:none;stroke-dashoffset:0;marker:none;visibility:visible;display:inline;overflow:visible;enable-background:accumulate" />
      <path
         sodipodi:nodetypes="ccccc"
         inkscape:connector-curvature="0"
         id="path6362"
         d="m 692.11815,38.850263 -22.7658,0 c 0.22932,12.82054 8.63386,10.25643 8.96945,15.12478 -0.26354,4.86834 -8.66809,2.30423 -8.89741,15.12477 l 22.76581,0"
         style="color:#000000;fill:none;stroke:#800080;stroke-width:3.61834145;stroke-linecap:square;stroke-linejoin:miter;stroke-miterlimit:4;stroke-opacity:1;stroke-dasharray:none;stroke-dashoffset:0;marker:none;visibility:visible;display:inline;overflow:visible;enable-background:accumulate" />
      <path
         sodipodi:nodetypes="ccccc"
         inkscape:connector-curvature="0"
         id="path6362-9-1"
         d="m 669.43671,69.468083 22.7658,0 c -0.22932,-12.82055 -8.63386,-10.25644 -8.85831,-15.38613 0.1524,-5.07625 8.55695,-2.45868 8.78627,-15.27922 l -22.7658,0"
         style="color:#000000;fill:none;stroke:#800080;stroke-width:3.61834145;stroke-linecap:square;stroke-linejoin:miter;stroke-miterlimit:4;stroke-opacity:1;stroke-dasharray:none;stroke-dashoffset:0;marker:none;visibility:visible;display:inline;overflow:visible;enable-background:accumulate" />
    </g>
  </g>
</svg>
