<?xml version="1.0" encoding="UTF-8" standalone="no"?>
<!-- Created with Inkscape (http://www.inkscape.org/) -->

<svg
   xmlns:dc="http://purl.org/dc/elements/1.1/"
   xmlns:cc="http://creativecommons.org/ns#"
   xmlns:rdf="http://www.w3.org/1999/02/22-rdf-syntax-ns#"
   xmlns:svg="http://www.w3.org/2000/svg"
   xmlns="http://www.w3.org/2000/svg"
   xmlns:sodipodi="http://sodipodi.sourceforge.net/DTD/sodipodi-0.dtd"
   xmlns:inkscape="http://www.inkscape.org/namespaces/inkscape"
   width="744.09448"
   height="1052.3622"
   id="svg2"
   version="1.1"
   inkscape:version="0.48.0 r9654"
   style="display:inline"
   sodipodi:docname="New document 1">
  <defs
     id="defs4" />
  <sodipodi:namedview
     id="base"
     pagecolor="#ffffff"
     bordercolor="#666666"
     borderopacity="1.0"
     inkscape:pageopacity="0.0"
     inkscape:pageshadow="2"
     inkscape:zoom="0.7"
     inkscape:cx="-225.42591"
     inkscape:cy="623.77653"
     inkscape:document-units="px"
     inkscape:current-layer="layer2"
     showgrid="false"
     inkscape:window-width="1920"
     inkscape:window-height="1018"
     inkscape:window-x="-8"
     inkscape:window-y="-8"
     inkscape:window-maximized="1" />
  <metadata
     id="metadata7">
    <rdf:RDF>
      <cc:Work
         rdf:about="">
        <dc:format>image/svg+xml</dc:format>
        <dc:type
           rdf:resource="http://purl.org/dc/dcmitype/StillImage" />
        <dc:title></dc:title>
      </cc:Work>
    </rdf:RDF>
  </metadata>
  <g
     inkscape:groupmode="layer"
     id="layer2"
     inkscape:label="Vector">
    <path
       style="fill:#999999;fill-opacity:1;stroke:none"
       d="m 485.44516,26.646168 c -9.32256,0.05686 -17.55054,7.201557 -21.06464,15.503966 -2.49453,5.874022 -2.53301,12.898804 0.5812,18.551321 -5.69778,-0.376718 -11.6305,0.797602 -16.3836,4.068404 -2.3894,-3.182442 -6.60057,-4.855281 -9.94042,-7.097153 -9.63969,-5.318839 -20.20575,-10.364492 -31.52909,-9.333563 -10.46765,-0.278675 -18.69842,9.017112 -20.73478,18.676979 -3.44285,18.359795 4.74511,38.462778 20.04361,49.197928 -3.04837,4.83977 -5.33423,10.42046 -6.99472,15.98946 -1.99264,8.35946 -2.43027,17.37711 -0.1368,25.71569 4.77348,15.57909 19.69195,27.26133 35.95596,28.11759 9.10314,0.84774 18.33466,-0.44788 26.81382,-3.86421 0.60303,10.18859 9.77604,18.26918 19.43098,20.16927 12.98826,2.35292 28.0632,-3.01248 34.19563,-15.27303 1.50766,-2.7834 2.16807,-6.17843 2.09018,-9.16887 6.30493,0.46669 12.94052,0.22379 18.36284,-3.44006 13.43208,-8.20816 22.62749,-23.90225 21.64582,-39.80447 -1.08117,-12.96982 -9.95332,-24.14934 -21.08313,-30.34648 2.75182,-2.31495 6.50009,-5.172157 8.61087,-8.656863 6.05524,-8.640309 5.99883,-21.238003 -1.09959,-29.279977 3.5901,-1.764182 2.05646,-6.564151 2.35625,-9.801906 -0.13174,-9.107498 -5.75389,-18.098037 -14.60861,-21.001776 -8.09326,-3.128312 -18.05088,-2.52125 -25.02306,3.000262 -4.46916,-6.509768 -11.45425,-12.847038 -19.93366,-11.938219 -0.51836,0.0056 -1.03673,0.01126 -1.55509,0.01689 z"
       id="path3829"
       inkscape:connector-curvature="0" />
    <path
       style="color:#000000;fill:#131900;fill-opacity:1;stroke:#000000;stroke-width:2.81490064;stroke-linecap:round;stroke-linejoin:miter;stroke-miterlimit:4;stroke-opacity:1;stroke-dasharray:none;stroke-dashoffset:0;marker:none;visibility:visible;display:inline;overflow:visible;enable-background:accumulate"
       d="m 63.539207,150.33411 185.481853,0 -26.64103,35.68892 -186.487172,0 z"
       id="path3001"
       inkscape:connector-curvature="0" />
    <path
       style="color:#000000;fill:#2f1300;fill-opacity:1;stroke:#000000;stroke-width:2.81490064;stroke-linecap:round;stroke-linejoin:miter;stroke-miterlimit:4;stroke-opacity:1;stroke-dasharray:none;stroke-dashoffset:0;marker:none;visibility:visible;display:inline;overflow:visible;enable-background:accumulate"
       d="m 76.105712,161.8953 c 6.494623,20.35396 133.925428,19.98856 144.766318,2.01066 0,-133.748063 -144.766318,-133.360029 -144.766318,-2.01066 z"
       id="path2997"
       inkscape:connector-curvature="0"
       sodipodi:nodetypes="ccc" />
    <path
       style="color:#000000;fill:#380000;fill-opacity:1;stroke:#000000;stroke-width:2.81490064;stroke-linecap:round;stroke-linejoin:miter;stroke-miterlimit:4;stroke-opacity:1;stroke-dasharray:none;stroke-dashoffset:0;marker:none;visibility:visible;display:inline;overflow:visible;enable-background:accumulate"
       d="m 184.1778,99.565352 c -8.37796,5.674498 -4.40724,41.202628 9.0479,39.710198 l 121.14126,-3.51863 -2.01063,-37.699538 z"
       id="path2999"
       inkscape:connector-curvature="0"
       sodipodi:nodetypes="ccccc" />
    <path
       style="color:#000000;fill:#222b00;stroke:#000000;stroke-width:2.81490064;stroke-linecap:round;stroke-linejoin:miter;stroke-miterlimit:4;stroke-opacity:1;stroke-dasharray:none;stroke-dashoffset:0;marker:none;visibility:visible;display:inline;overflow:visible;enable-background:accumulate"
       d="m 36.395515,185.52037 81.933705,202.57229 43.22885,0.50266 60.3193,-202.57229 z"
       id="path3003"
       inkscape:connector-curvature="0" />
    <path
       style="color:#000000;fill:#192000;fill-opacity:1;stroke:#000000;stroke-width:2.81490064;stroke-linecap:round;stroke-linejoin:miter;stroke-miterlimit:4;stroke-opacity:1;stroke-dasharray:none;stroke-dashoffset:0;marker:none;visibility:visible;display:inline;overflow:visible;enable-background:accumulate"
       d="m 248.51838,150.45977 -74.89646,226.0717 -12.06385,12.06385 60.3193,-202.32098 z"
       id="path3005"
       inkscape:connector-curvature="0"
       sodipodi:nodetypes="ccccc" />
    <path
       sodipodi:type="arc"
       style="fill:#241f1c;stroke:#000000"
       id="path3007-6"
       sodipodi:cx="295.17856"
       sodipodi:cy="589.5943"
       sodipodi:rx="8.3928576"
       sodipodi:ry="9.1964283"
       d="m 303.57142,589.5943 a 8.3928576,9.1964283 0 1 1 -16.78572,0 8.3928576,9.1964283 0 1 1 16.78572,0 z"
       transform="matrix(2.5888042,0,0,2.5888042,-599.08279,-1109.2789)" />
    <path
       style="color:#000000;fill:none;stroke:#000000;stroke-width:13.23003197;stroke-linecap:round;stroke-linejoin:miter;stroke-miterlimit:4;stroke-opacity:1;stroke-dasharray:none;stroke-dashoffset:0;marker:none;visibility:visible;display:inline;overflow:visible;enable-background:accumulate"
       d="m 144.4676,424.78692 19.1011,-7.53991"
       id="path3027"
       inkscape:connector-curvature="0" />
    <path
       sodipodi:type="arc"
       style="fill:#241f1c;stroke:#000000"
       id="path3007"
       sodipodi:cx="295.17856"
       sodipodi:cy="589.5943"
       sodipodi:rx="8.3928576"
       sodipodi:ry="9.1964283"
       d="m 303.57142,589.5943 a 8.3928576,9.1964283 0 1 1 -16.78572,0 8.3928576,9.1964283 0 1 1 16.78572,0 z"
       transform="matrix(2.8149006,0,0,2.8149006,-709.05048,-1226.066)" />
    <path
       style="color:#000000;fill:#0a0909;fill-opacity:1;stroke:#000000;stroke-width:2.81490064;stroke-linecap:round;stroke-linejoin:miter;stroke-miterlimit:4;stroke-opacity:1;stroke-dasharray:none;stroke-dashoffset:0;marker:none;visibility:visible;display:inline;overflow:visible;enable-background:accumulate"
       d="m 137.93301,388.59532 0,26.01272 c 4.10291,3.73464 6.20319,9.19043 6.91159,13.06916 2.48727,-2.15703 5.14378,-5.30319 4.6496,-11.43553 l 0,-27.64635 z"
       id="path3797"
       inkscape:connector-curvature="0"
       sodipodi:nodetypes="cccccc" />
    <path
       style="color:#000000;fill:#ffcc00;stroke:#000000;stroke-width:2.81490064;stroke-linecap:round;stroke-linejoin:miter;stroke-miterlimit:4;stroke-opacity:1;stroke-dasharray:none;stroke-dashoffset:0;marker:none;visibility:visible;display:inline;overflow:visible;enable-background:accumulate"
       d="m 134.91704,211.65872 -38.20223,71.88048 79.92308,0 z"
       id="path3799"
       inkscape:connector-curvature="0" />
    <path
       style="color:#000000;fill:none;stroke:#000000;stroke-width:5.98729372;stroke-linecap:round;stroke-linejoin:miter;stroke-miterlimit:4;stroke-opacity:1;stroke-dasharray:none;stroke-dashoffset:0;marker:none;visibility:visible;display:inline;overflow:visible;enable-background:accumulate"
       d="m 135.02842,231.6962 0,27.75635"
       id="path3801"
       inkscape:connector-curvature="0" />
    <path
       sodipodi:type="arc"
       id="path3803"
       style="fill:#000000;stroke:none"
       sodipodi:cx="302.66696"
       sodipodi:cy="530.71307"
       sodipodi:rx="1.5"
       sodipodi:ry="1.5"
       d="m 304.16696,530.71307 a 1.5,1.5 0 1 1 -3,0 1.5,1.5 0 1 1 3,0 z"
       transform="matrix(3.3107358,0,0,3.3107358,-867.01111,-1485.2263)" />
    <path
       sodipodi:type="arc"
       style="fill:#0d0d0d;fill-opacity:1;stroke:#000000;stroke-width:1;stroke-linecap:square;stroke-linejoin:round;stroke-miterlimit:4;stroke-opacity:1;stroke-dasharray:none"
       id="path3805"
       sodipodi:cx="366.30658"
       sodipodi:cy="477.08032"
       sodipodi:rx="4.4194174"
       sodipodi:ry="7.0710678"
       d="m 370.726,477.08032 a 4.4194174,7.0710678 0 1 1 -8.83884,0 4.4194174,7.0710678 0 1 1 8.83884,0 z"
       transform="matrix(2.2913395,0,0,2.7203921,-524.81366,-1181.125)" />
    <path
       sodipodi:type="arc"
       style="fill:#000000;fill-opacity:1;stroke:#000000;stroke-width:1;stroke-linecap:square;stroke-linejoin:round;stroke-miterlimit:4;stroke-opacity:1;stroke-dasharray:none"
       id="path3807"
       sodipodi:cx="477.85715"
       sodipodi:cy="460.93362"
       sodipodi:rx="7.5"
       sodipodi:ry="7.5"
       d="m 485.35715,460.93362 a 7.5,7.5 0 1 1 -15,0 7.5,7.5 0 1 1 15,0 z"
       transform="matrix(2.8149006,0,0,2.8149006,-696.24004,-1187.3192)" />
    <path
       style="color:#000000;fill:#ffffff;stroke:none;stroke-width:1;marker:none;visibility:visible;display:inline;overflow:visible;enable-background:accumulate"
       d="m 642.84843,95.46027 c 8.9886,-0.47873 18.05922,4.423447 21.48873,10.93285 -0.23195,-4.39828 -2.34873,-7.53991 -7.41422,-10.807193 -6.04233,-2.17285 -9.86356,-1.893696 -14.07451,-0.125544 z"
       id="path3809"
       inkscape:connector-curvature="0"
       sodipodi:nodetypes="cccc" />
    <path
       sodipodi:type="arc"
       style="fill:#000000;fill-opacity:1;stroke:none"
       id="path3811"
       sodipodi:cx="296.35352"
       sodipodi:cy="590.21741"
       sodipodi:rx="2.6516504"
       sodipodi:ry="2.7779195"
       d="m 299.00517,590.21741 a 2.6516504,2.7779195 0 1 1 -5.3033,0 2.6516504,2.7779195 0 1 1 5.3033,0 z"
       transform="matrix(2.412772,0,0,2.8149006,-593.68609,-1227.7238)" />
    <path
       style="color:#000000;fill:none;stroke:#000000;stroke-width:2.81490064;stroke-linecap:round;stroke-linejoin:miter;stroke-miterlimit:4;stroke-opacity:1;stroke-dasharray:none;stroke-dashoffset:0;marker:none;visibility:visible;display:inline;overflow:visible;enable-background:accumulate"
       d="m 448.52515,65.182411 c -85.99482,-59.9808876 -74.87,67.349029 -12.79567,56.158699"
       id="path3813"
       inkscape:connector-curvature="0"
       sodipodi:nodetypes="cc" />
    <path
       style="color:#000000;fill:none;stroke:#000000;stroke-width:2.81490064;stroke-linecap:round;stroke-linejoin:miter;stroke-miterlimit:4;stroke-opacity:1;stroke-dasharray:none;stroke-dashoffset:0;marker:none;visibility:visible;display:inline;overflow:visible;enable-background:accumulate"
       d="m 406.58383,117.78677 c -28.2006,50.74359 23.89519,91.59281 76.77391,51.18263"
       id="path3815"
       inkscape:connector-curvature="0"
       sodipodi:nodetypes="cc" />
    <path
       style="color:#000000;fill:none;stroke:#000000;stroke-width:2.81490064;stroke-linecap:round;stroke-linejoin:miter;stroke-miterlimit:4;stroke-opacity:1;stroke-dasharray:none;stroke-dashoffset:0;marker:none;visibility:visible;display:inline;overflow:visible;enable-background:accumulate"
       d="m 462.74253,181.05419 c 3.92516,32.09558 54.45364,24.17105 54.02611,-3.55435 m -10.66307,-7.10869 c 28.74698,28.65867 80.37358,-38.19781 28.4348,-66.1109 27.8707,-16.35333 13.02962,-58.535966 -29.14565,-41.230436"
       id="path3817"
       inkscape:connector-curvature="0"
       sodipodi:nodetypes="ccccc" />
    <path
       style="color:#000000;fill:none;stroke:#000000;stroke-width:2.81490064;stroke-linecap:round;stroke-linejoin:miter;stroke-miterlimit:4;stroke-opacity:1;stroke-dasharray:none;stroke-dashoffset:0;marker:none;visibility:visible;display:inline;overflow:visible;enable-background:accumulate"
       d="m 544.49254,68.025883 c 8.19938,-36.182648 -29.05163,-38.3544 -37.67609,-27.7239 -18.46243,-30.239943 -53.06088,-1.296628 -40.72038,20.363863"
       id="path3819"
       inkscape:connector-curvature="0"
       sodipodi:nodetypes="ccc" />
    <path
       style="color:#000000;fill:none;stroke:#000000;stroke-width:2.81490064;stroke-linecap:round;stroke-linejoin:miter;stroke-miterlimit:4;stroke-opacity:1;stroke-dasharray:none;stroke-dashoffset:0;marker:none;visibility:visible;display:inline;overflow:visible;enable-background:accumulate"
       d="M 477.6708,64.471536 C 434.07806,49.242192 428.73473,100.59808 454.21209,113.52154"
       id="path3821"
       inkscape:connector-curvature="0"
       sodipodi:nodetypes="cc" />
    <path
       style="color:#000000;fill:none;stroke:#000000;stroke-width:2.81490064;stroke-linecap:round;stroke-linejoin:miter;stroke-miterlimit:4;stroke-opacity:1;stroke-dasharray:none;stroke-dashoffset:0;marker:none;visibility:visible;display:inline;overflow:visible;enable-background:accumulate"
       d="m 456.34472,132.00418 c -4.31294,16.3888 22.81595,28.76719 31.98912,4.97607 12.28881,19.64556 45.16221,-0.48216 20.61523,-21.32608"
       id="path3823"
       inkscape:connector-curvature="0"
       sodipodi:nodetypes="ccc" />
  </g>
</svg>
